<svg xmlns="http://www.w3.org/2000/svg" xmlns:xlink="http://www.w3.org/1999/xlink" style="isolation:isolate" width="200" height="50"   viewBox="150 115 225 85"><defs><g/></defs><g fill="#006b37" fill-opacity="0.302"><g transform="translate(147.323414, 192.889794)"><g><path d="M 38.859375 -30.003906 C 37.234375 -20.132812 28.339844 -14.082031 19.882812 -12.609375 C 13.398438 -11.480469 9.269531 -14.324219 8.4375 -19.117188 C 7.34375 -25.386719 10.539062 -29.574219 17.445312 -30.777344 C 20.085938 -29.785156 22.242188 -29.507812 24.003906 -29.8125 C 28.234375 -30.550781 29.957031 -34.40625 29.382812 -37.722656 C 28.878906 -40.609375 26.625 -43.125 22.652344 -42.578125 C 18.425781 -41.839844 15.738281 -44.351562 15.160156 -47.664062 C 14.363281 -52.246094 16.367188 -56.152344 21.019531 -56.960938 C 23.207031 -57.34375 25.589844 -56.160156 26.378906 -54.554688 C 27.980469 -51.203125 30.234375 -49.925781 32.703125 -50.355469 C 35.167969 -50.78125 37.269531 -52.890625 36.941406 -56.03125 C 36.0625 -63.574219 28.398438 -67.976562 19.589844 -66.445312 C 9.507812 -64.691406 2.167969 -55.132812 3.859375 -45.40625 C 4.375 -42.445312 5.816406 -40.007812 7.945312 -38.203125 C -2.210938 -34.398438 -4.324219 -24.011719 -3.023438 -16.539062 C -1.367188 -7.023438 8.316406 -1.449219 21.214844 -3.691406 C 34.398438 -5.988281 45.910156 -15.761719 47.667969 -29.867188 C 47.78125 -30.464844 47.753906 -31.042969 47.667969 -31.535156 C 47.238281 -34.003906 45.03125 -35 42.917969 -34.628906 C 40.945312 -34.285156 39.109375 -32.734375 38.859375 -30.003906 Z M 38.859375 -30.003906 "/></g></g></g><g fill="#006b37" fill-opacity="0.302"><g transform="translate(186.931386, 185.995377)"><g><path d="M 40.046875 -31.515625 C 38.074219 -31.171875 36.097656 -29.59375 35.71875 -26.769531 C 34.476562 -17.621094 30.539062 -13.957031 27.367188 -13.40625 C 26.171875 -13.195312 25.355469 -13.707031 25.160156 -14.835938 C 25.058594 -15.402344 25.078125 -16.128906 25.15625 -16.941406 L 29.074219 -41.152344 C 29.207031 -42.046875 29.214844 -42.847656 29.09375 -43.554688 C 28.550781 -46.652344 25.734375 -47.832031 23.125 -47.378906 C 21.152344 -47.035156 19.265625 -45.765625 18.445312 -43.804688 C 16.804688 -44.464844 13.871094 -45.042969 10.277344 -44.417969 C 5.625 -43.609375 0.992188 -40.1875 0.0351562 -34.429688 L -3.289062 -14.3125 C -3.492188 -12.972656 -3.554688 -11.652344 -3.332031 -10.386719 C -2.316406 -4.535156 3.242188 -0.5625 9.445312 -1.644531 C 12.757812 -2.21875 15.882812 -4.289062 18.085938 -7.070312 C 20.90625 -4.21875 26.007812 -4.527344 28.125 -4.894531 C 33.972656 -5.914062 41.28125 -10.234375 43.804688 -22.441406 C 44.3125 -25.359375 44.78125 -27.257812 44.5625 -28.527344 C 44.144531 -30.921875 42.089844 -31.871094 40.046875 -31.515625 Z M 16.664062 -28.171875 L 15.109375 -17.082031 C 14.425781 -12.242188 11.933594 -10.71875 10.453125 -10.460938 C 8.902344 -10.191406 7.953125 -11.042969 7.671875 -12.664062 C 7.511719 -13.582031 7.578125 -14.464844 7.675781 -15.132812 L 9.722656 -30.085938 C 10.3125 -34.621094 12.1875 -35.527344 13.316406 -35.722656 C 14.65625 -35.957031 16.371094 -34.875 16.785156 -32.476562 C 16.96875 -31.421875 16.921875 -30.03125 16.664062 -28.171875 Z M 16.664062 -28.171875 "/></g></g></g><g fill="#006b37" fill-opacity="0.302"><g transform="translate(223.931714, 179.554864)"><g><path d="M 33.957031 -26.460938 C 32.988281 -22.007812 31.023438 -18.691406 28.113281 -16.222656 C 28.09375 -17.164062 28.085938 -18.035156 27.929688 -18.949219 C 27.214844 -23.039062 24.355469 -26.535156 21.804688 -29.503906 C 19.980469 -31.65625 18.152344 -33.804688 17.492188 -35.941406 C 19.316406 -37.132812 20.476562 -39.65625 20.105469 -41.769531 C 19.578125 -44.800781 16.761719 -47.214844 13.238281 -46.601562 C 10.558594 -46.136719 8.113281 -44.332031 7.253906 -41.347656 C 5.4375 -35.515625 3.421875 -29.570312 1.523438 -23.792969 C -2.992188 -21.773438 -4.386719 -16.011719 -3.597656 -11.5 C -2.398438 -4.59375 5.441406 -0.4375 17.917969 -2.609375 C 30.183594 -4.746094 40.367188 -11.3125 42.824219 -26.410156 C 42.917969 -26.714844 42.855469 -27.066406 42.804688 -27.347656 C 42.449219 -29.394531 39.867188 -30.46875 37.609375 -30.074219 C 35.917969 -29.78125 34.375 -28.640625 33.957031 -26.460938 Z M 11.28125 -24.476562 L 11.679688 -25.925781 C 14.238281 -23.757812 16.519531 -20.667969 17.09375 -17.355469 C 17.671875 -14.042969 16.386719 -10.984375 12.675781 -10.195312 C 10.28125 -9.777344 7.980469 -10.46875 6.886719 -12.164062 C 7.476562 -12.121094 8.039062 -12.21875 8.53125 -12.304688 C 12.621094 -13.015625 14.417969 -16.886719 13.816406 -20.34375 C 13.535156 -21.964844 12.6875 -23.484375 11.28125 -24.476562 Z M 11.28125 -24.476562 "/></g></g></g><g fill="#006b37" fill-opacity="0.302"><g transform="translate(259.099648, 173.433308)"><g><path d="M 7.617188 -13.816406 L 11.574219 -37.382812 C 11.722656 -38.207031 11.742188 -38.933594 11.617188 -39.640625 C 11.113281 -42.53125 8.234375 -44.0625 5.625 -43.609375 C 3.652344 -43.265625 1.746094 -41.699219 1.25 -38.707031 L -3.058594 -12.976562 C -3.316406 -11.550781 -3.296875 -10.175781 -3.074219 -8.90625 C -2.242188 -4.113281 1.742188 -1.246094 6.484375 -1.128906 C -1.785156 2.269531 -9.699219 7.28125 -8.1875 15.949219 C -7 22.785156 0.128906 26.195312 7.035156 24.992188 C 14.015625 23.777344 19.917969 18.898438 21.457031 10.207031 C 21.929688 7.074219 22.515625 3.777344 23.070312 0.703125 C 32.597656 -4.222656 42.003906 -11.523438 44.289062 -27.171875 C 44.402344 -27.773438 44.375 -28.347656 44.289062 -28.839844 C 43.871094 -31.238281 41.792969 -32.328125 39.679688 -31.960938 C 37.777344 -31.628906 35.941406 -30.074219 35.433594 -27.15625 C 34.074219 -19.511719 30.089844 -14.460938 25.082031 -10.683594 L 30.027344 -41.101562 C 30.128906 -41.773438 30.101562 -42.347656 30.015625 -42.84375 C 29.511719 -45.730469 26.628906 -47.265625 24.023438 -46.808594 C 22.050781 -46.464844 20.144531 -44.898438 19.648438 -41.910156 L 15.6875 -16.675781 C 14.09375 -12.476562 11.875 -10.636719 9.972656 -10.304688 C 8.703125 -10.082031 7.792969 -10.722656 7.570312 -11.992188 C 7.484375 -12.488281 7.515625 -13.144531 7.617188 -13.816406 Z M 10.738281 6.191406 L 9.878906 11.28125 C 9.347656 14.058594 7.394531 15.777344 5.28125 16.148438 C 3.660156 16.429688 2.78125 15.566406 2.5625 14.296875 C 2.488281 13.875 2.460938 13.296875 2.585938 12.765625 C 3.144531 10.128906 6.363281 8.1875 10.738281 6.191406 Z M 10.738281 6.191406 "/></g></g></g><g fill="#006b37" fill-opacity="0.502"><g transform="translate(143.98028, 189.160453)"><g><path d="M 38.859375 -30.003906 C 37.234375 -20.132812 28.339844 -14.082031 19.882812 -12.609375 C 13.398438 -11.480469 9.269531 -14.324219 8.4375 -19.117188 C 7.34375 -25.386719 10.539062 -29.574219 17.445312 -30.777344 C 20.085938 -29.785156 22.242188 -29.507812 24.003906 -29.8125 C 28.234375 -30.550781 29.957031 -34.40625 29.382812 -37.722656 C 28.878906 -40.609375 26.625 -43.125 22.652344 -42.578125 C 18.425781 -41.839844 15.738281 -44.351562 15.160156 -47.664062 C 14.363281 -52.246094 16.367188 -56.152344 21.019531 -56.960938 C 23.207031 -57.34375 25.589844 -56.160156 26.378906 -54.554688 C 27.980469 -51.203125 30.234375 -49.925781 32.703125 -50.355469 C 35.167969 -50.78125 37.269531 -52.890625 36.941406 -56.03125 C 36.0625 -63.574219 28.398438 -67.976562 19.589844 -66.445312 C 9.507812 -64.691406 2.167969 -55.132812 3.859375 -45.40625 C 4.375 -42.445312 5.816406 -40.007812 7.945312 -38.203125 C -2.210938 -34.398438 -4.324219 -24.011719 -3.023438 -16.539062 C -1.367188 -7.023438 8.316406 -1.449219 21.214844 -3.691406 C 34.398438 -5.988281 45.910156 -15.761719 47.667969 -29.867188 C 47.78125 -30.464844 47.753906 -31.042969 47.667969 -31.535156 C 47.238281 -34.003906 45.03125 -35 42.917969 -34.628906 C 40.945312 -34.285156 39.109375 -32.734375 38.859375 -30.003906 Z M 38.859375 -30.003906 "/></g></g></g><g fill="#006b37" fill-opacity="0.502"><g transform="translate(183.588251, 182.266036)"><g><path d="M 40.046875 -31.515625 C 38.074219 -31.171875 36.097656 -29.59375 35.71875 -26.769531 C 34.476562 -17.621094 30.539062 -13.957031 27.367188 -13.40625 C 26.171875 -13.195312 25.355469 -13.707031 25.160156 -14.835938 C 25.058594 -15.402344 25.078125 -16.128906 25.15625 -16.941406 L 29.074219 -41.152344 C 29.207031 -42.046875 29.214844 -42.847656 29.09375 -43.554688 C 28.550781 -46.652344 25.734375 -47.832031 23.125 -47.378906 C 21.152344 -47.035156 19.265625 -45.765625 18.445312 -43.804688 C 16.804688 -44.464844 13.871094 -45.042969 10.277344 -44.417969 C 5.625 -43.609375 0.992188 -40.1875 0.0351562 -34.429688 L -3.289062 -14.3125 C -3.492188 -12.972656 -3.554688 -11.652344 -3.332031 -10.386719 C -2.316406 -4.535156 3.242188 -0.5625 9.445312 -1.644531 C 12.757812 -2.21875 15.882812 -4.289062 18.085938 -7.070312 C 20.90625 -4.21875 26.007812 -4.527344 28.125 -4.894531 C 33.972656 -5.914062 41.28125 -10.234375 43.804688 -22.441406 C 44.3125 -25.359375 44.78125 -27.257812 44.5625 -28.527344 C 44.144531 -30.921875 42.089844 -31.871094 40.046875 -31.515625 Z M 16.664062 -28.171875 L 15.109375 -17.082031 C 14.425781 -12.242188 11.933594 -10.71875 10.453125 -10.460938 C 8.902344 -10.191406 7.953125 -11.042969 7.671875 -12.664062 C 7.511719 -13.582031 7.578125 -14.464844 7.675781 -15.132812 L 9.722656 -30.085938 C 10.3125 -34.621094 12.1875 -35.527344 13.316406 -35.722656 C 14.65625 -35.957031 16.371094 -34.875 16.785156 -32.476562 C 16.96875 -31.421875 16.921875 -30.03125 16.664062 -28.171875 Z M 16.664062 -28.171875 "/></g></g></g><g fill="#006b37" fill-opacity="0.502"><g transform="translate(220.588579, 175.825523)"><g><path d="M 33.957031 -26.460938 C 32.988281 -22.007812 31.023438 -18.691406 28.113281 -16.222656 C 28.09375 -17.164062 28.085938 -18.035156 27.929688 -18.949219 C 27.214844 -23.039062 24.355469 -26.535156 21.804688 -29.503906 C 19.980469 -31.65625 18.152344 -33.804688 17.492188 -35.941406 C 19.316406 -37.132812 20.476562 -39.65625 20.105469 -41.769531 C 19.578125 -44.800781 16.761719 -47.214844 13.238281 -46.601562 C 10.558594 -46.136719 8.113281 -44.332031 7.253906 -41.347656 C 5.4375 -35.515625 3.421875 -29.570312 1.523438 -23.792969 C -2.992188 -21.773438 -4.386719 -16.011719 -3.597656 -11.5 C -2.398438 -4.59375 5.441406 -0.4375 17.917969 -2.609375 C 30.183594 -4.746094 40.367188 -11.3125 42.824219 -26.410156 C 42.917969 -26.714844 42.855469 -27.066406 42.804688 -27.347656 C 42.449219 -29.394531 39.867188 -30.46875 37.609375 -30.074219 C 35.917969 -29.78125 34.375 -28.640625 33.957031 -26.460938 Z M 11.28125 -24.476562 L 11.679688 -25.925781 C 14.238281 -23.757812 16.519531 -20.667969 17.09375 -17.355469 C 17.671875 -14.042969 16.386719 -10.984375 12.675781 -10.195312 C 10.28125 -9.777344 7.980469 -10.46875 6.886719 -12.164062 C 7.476562 -12.121094 8.039062 -12.21875 8.53125 -12.304688 C 12.621094 -13.015625 14.417969 -16.886719 13.816406 -20.34375 C 13.535156 -21.964844 12.6875 -23.484375 11.28125 -24.476562 Z M 11.28125 -24.476562 "/></g></g></g><g fill="#006b37" fill-opacity="0.502"><g transform="translate(255.756513, 169.703967)"><g><path d="M 7.617188 -13.816406 L 11.574219 -37.382812 C 11.722656 -38.207031 11.742188 -38.933594 11.617188 -39.640625 C 11.113281 -42.53125 8.234375 -44.0625 5.625 -43.609375 C 3.652344 -43.265625 1.746094 -41.699219 1.25 -38.707031 L -3.058594 -12.976562 C -3.316406 -11.550781 -3.296875 -10.175781 -3.074219 -8.90625 C -2.242188 -4.113281 1.742188 -1.246094 6.484375 -1.128906 C -1.785156 2.269531 -9.699219 7.28125 -8.1875 15.949219 C -7 22.785156 0.128906 26.195312 7.035156 24.992188 C 14.015625 23.777344 19.917969 18.898438 21.457031 10.207031 C 21.929688 7.074219 22.515625 3.777344 23.070312 0.703125 C 32.597656 -4.222656 42.003906 -11.523438 44.289062 -27.171875 C 44.402344 -27.773438 44.375 -28.347656 44.289062 -28.839844 C 43.871094 -31.238281 41.792969 -32.328125 39.679688 -31.960938 C 37.777344 -31.628906 35.941406 -30.074219 35.433594 -27.15625 C 34.074219 -19.511719 30.089844 -14.460938 25.082031 -10.683594 L 30.027344 -41.101562 C 30.128906 -41.773438 30.101562 -42.347656 30.015625 -42.84375 C 29.511719 -45.730469 26.628906 -47.265625 24.023438 -46.808594 C 22.050781 -46.464844 20.144531 -44.898438 19.648438 -41.910156 L 15.6875 -16.675781 C 14.09375 -12.476562 11.875 -10.636719 9.972656 -10.304688 C 8.703125 -10.082031 7.792969 -10.722656 7.570312 -11.992188 C 7.484375 -12.488281 7.515625 -13.144531 7.617188 -13.816406 Z M 10.738281 6.191406 L 9.878906 11.28125 C 9.347656 14.058594 7.394531 15.777344 5.28125 16.148438 C 3.660156 16.429688 2.78125 15.566406 2.5625 14.296875 C 2.488281 13.875 2.460938 13.296875 2.585938 12.765625 C 3.144531 10.128906 6.363281 8.1875 10.738281 6.191406 Z M 10.738281 6.191406 "/></g></g></g><g fill="#ffe472" fill-opacity="1"><g transform="translate(140.637135, 185.431095)"><g><path d="M 38.859375 -30.003906 C 37.234375 -20.132812 28.339844 -14.082031 19.882812 -12.609375 C 13.398438 -11.480469 9.269531 -14.324219 8.4375 -19.117188 C 7.34375 -25.386719 10.539062 -29.574219 17.445312 -30.777344 C 20.085938 -29.785156 22.242188 -29.507812 24.003906 -29.8125 C 28.234375 -30.550781 29.957031 -34.40625 29.382812 -37.722656 C 28.878906 -40.609375 26.625 -43.125 22.652344 -42.578125 C 18.425781 -41.839844 15.738281 -44.351562 15.160156 -47.664062 C 14.363281 -52.246094 16.367188 -56.152344 21.019531 -56.960938 C 23.207031 -57.34375 25.589844 -56.160156 26.378906 -54.554688 C 27.980469 -51.203125 30.234375 -49.925781 32.703125 -50.355469 C 35.167969 -50.78125 37.269531 -52.890625 36.941406 -56.03125 C 36.0625 -63.574219 28.398438 -67.976562 19.589844 -66.445312 C 9.507812 -64.691406 2.167969 -55.132812 3.859375 -45.40625 C 4.375 -42.445312 5.816406 -40.007812 7.945312 -38.203125 C -2.210938 -34.398438 -4.324219 -24.011719 -3.023438 -16.539062 C -1.367188 -7.023438 8.316406 -1.449219 21.214844 -3.691406 C 34.398438 -5.988281 45.910156 -15.761719 47.667969 -29.867188 C 47.78125 -30.464844 47.753906 -31.042969 47.667969 -31.535156 C 47.238281 -34.003906 45.03125 -35 42.917969 -34.628906 C 40.945312 -34.285156 39.109375 -32.734375 38.859375 -30.003906 Z M 38.859375 -30.003906 "/></g></g></g><g fill="#ffe472" fill-opacity="1"><g transform="translate(180.245107, 178.536679)"><g><path d="M 40.046875 -31.515625 C 38.074219 -31.171875 36.097656 -29.59375 35.71875 -26.769531 C 34.476562 -17.621094 30.539062 -13.957031 27.367188 -13.40625 C 26.171875 -13.195312 25.355469 -13.707031 25.160156 -14.835938 C 25.058594 -15.402344 25.078125 -16.128906 25.15625 -16.941406 L 29.074219 -41.152344 C 29.207031 -42.046875 29.214844 -42.847656 29.09375 -43.554688 C 28.550781 -46.652344 25.734375 -47.832031 23.125 -47.378906 C 21.152344 -47.035156 19.265625 -45.765625 18.445312 -43.804688 C 16.804688 -44.464844 13.871094 -45.042969 10.277344 -44.417969 C 5.625 -43.609375 0.992188 -40.1875 0.0351562 -34.429688 L -3.289062 -14.3125 C -3.492188 -12.972656 -3.554688 -11.652344 -3.332031 -10.386719 C -2.316406 -4.535156 3.242188 -0.5625 9.445312 -1.644531 C 12.757812 -2.21875 15.882812 -4.289062 18.085938 -7.070312 C 20.90625 -4.21875 26.007812 -4.527344 28.125 -4.894531 C 33.972656 -5.914062 41.28125 -10.234375 43.804688 -22.441406 C 44.3125 -25.359375 44.78125 -27.257812 44.5625 -28.527344 C 44.144531 -30.921875 42.089844 -31.871094 40.046875 -31.515625 Z M 16.664062 -28.171875 L 15.109375 -17.082031 C 14.425781 -12.242188 11.933594 -10.71875 10.453125 -10.460938 C 8.902344 -10.191406 7.953125 -11.042969 7.671875 -12.664062 C 7.511719 -13.582031 7.578125 -14.464844 7.675781 -15.132812 L 9.722656 -30.085938 C 10.3125 -34.621094 12.1875 -35.527344 13.316406 -35.722656 C 14.65625 -35.957031 16.371094 -34.875 16.785156 -32.476562 C 16.96875 -31.421875 16.921875 -30.03125 16.664062 -28.171875 Z M 16.664062 -28.171875 "/></g></g></g><g fill="#ffe472" fill-opacity="1"><g transform="translate(217.245435, 172.096165)"><g><path d="M 33.957031 -26.460938 C 32.988281 -22.007812 31.023438 -18.691406 28.113281 -16.222656 C 28.09375 -17.164062 28.085938 -18.035156 27.929688 -18.949219 C 27.214844 -23.039062 24.355469 -26.535156 21.804688 -29.503906 C 19.980469 -31.65625 18.152344 -33.804688 17.492188 -35.941406 C 19.316406 -37.132812 20.476562 -39.65625 20.105469 -41.769531 C 19.578125 -44.800781 16.761719 -47.214844 13.238281 -46.601562 C 10.558594 -46.136719 8.113281 -44.332031 7.253906 -41.347656 C 5.4375 -35.515625 3.421875 -29.570312 1.523438 -23.792969 C -2.992188 -21.773438 -4.386719 -16.011719 -3.597656 -11.5 C -2.398438 -4.59375 5.441406 -0.4375 17.917969 -2.609375 C 30.183594 -4.746094 40.367188 -11.3125 42.824219 -26.410156 C 42.917969 -26.714844 42.855469 -27.066406 42.804688 -27.347656 C 42.449219 -29.394531 39.867188 -30.46875 37.609375 -30.074219 C 35.917969 -29.78125 34.375 -28.640625 33.957031 -26.460938 Z M 11.28125 -24.476562 L 11.679688 -25.925781 C 14.238281 -23.757812 16.519531 -20.667969 17.09375 -17.355469 C 17.671875 -14.042969 16.386719 -10.984375 12.675781 -10.195312 C 10.28125 -9.777344 7.980469 -10.46875 6.886719 -12.164062 C 7.476562 -12.121094 8.039062 -12.21875 8.53125 -12.304688 C 12.621094 -13.015625 14.417969 -16.886719 13.816406 -20.34375 C 13.535156 -21.964844 12.6875 -23.484375 11.28125 -24.476562 Z M 11.28125 -24.476562 "/></g></g></g><g fill="#ffe472" fill-opacity="1"><g transform="translate(252.413369, 165.97461)"><g><path d="M 7.617188 -13.816406 L 11.574219 -37.382812 C 11.722656 -38.207031 11.742188 -38.933594 11.617188 -39.640625 C 11.113281 -42.53125 8.234375 -44.0625 5.625 -43.609375 C 3.652344 -43.265625 1.746094 -41.699219 1.25 -38.707031 L -3.058594 -12.976562 C -3.316406 -11.550781 -3.296875 -10.175781 -3.074219 -8.90625 C -2.242188 -4.113281 1.742188 -1.246094 6.484375 -1.128906 C -1.785156 2.269531 -9.699219 7.28125 -8.1875 15.949219 C -7 22.785156 0.128906 26.195312 7.035156 24.992188 C 14.015625 23.777344 19.917969 18.898438 21.457031 10.207031 C 21.929688 7.074219 22.515625 3.777344 23.070312 0.703125 C 32.597656 -4.222656 42.003906 -11.523438 44.289062 -27.171875 C 44.402344 -27.773438 44.375 -28.347656 44.289062 -28.839844 C 43.871094 -31.238281 41.792969 -32.328125 39.679688 -31.960938 C 37.777344 -31.628906 35.941406 -30.074219 35.433594 -27.15625 C 34.074219 -19.511719 30.089844 -14.460938 25.082031 -10.683594 L 30.027344 -41.101562 C 30.128906 -41.773438 30.101562 -42.347656 30.015625 -42.84375 C 29.511719 -45.730469 26.628906 -47.265625 24.023438 -46.808594 C 22.050781 -46.464844 20.144531 -44.898438 19.648438 -41.910156 L 15.6875 -16.675781 C 14.09375 -12.476562 11.875 -10.636719 9.972656 -10.304688 C 8.703125 -10.082031 7.792969 -10.722656 7.570312 -11.992188 C 7.484375 -12.488281 7.515625 -13.144531 7.617188 -13.816406 Z M 10.738281 6.191406 L 9.878906 11.28125 C 9.347656 14.058594 7.394531 15.777344 5.28125 16.148438 C 3.660156 16.429688 2.78125 15.566406 2.5625 14.296875 C 2.488281 13.875 2.460938 13.296875 2.585938 12.765625 C 3.144531 10.128906 6.363281 8.1875 10.738281 6.191406 Z M 10.738281 6.191406 "/></g></g></g><g fill="#006b37" fill-opacity="0.302"><g transform="translate(299.736302, 196.274904)"><g><path d="M 50.484375 -62.851562 L 22.40625 -58.609375 C 18.777344 -58.0625 17.578125 -55.664062 17.882812 -53.628906 C 18.171875 -51.71875 19.851562 -50.082031 22.144531 -50.429688 L 25.964844 -51.007812 L 23.628906 -40.167969 L 20.699219 -39.726562 C 17.261719 -39.207031 15.921875 -36.855469 16.230469 -34.816406 C 16.53125 -32.84375 18.347656 -31.164062 21.402344 -31.625 L 22.039062 -31.722656 L 19.5625 -19.234375 C 18.300781 -12.921875 15.925781 -11.394531 12.617188 -10.894531 C 10.324219 -10.546875 8.503906 -11.835938 7.699219 -13.277344 C 7.757812 -13.742188 7.753906 -14.195312 7.6875 -14.640625 C 7.246094 -17.570312 4.363281 -18.957031 1.882812 -18.582031 C -0.664062 -18.199219 -2.941406 -16.03125 -2.328125 -11.957031 C -1.414062 -5.90625 5.539062 -0.835938 13.878906 -2.097656 C 20.4375 -3.085938 26.417969 -7.050781 28.507812 -17.785156 C 29.363281 -22.472656 30.597656 -28.523438 31.515625 -33.21875 L 35.335938 -33.796875 C 39.21875 -34.382812 40.414062 -36.84375 40.09375 -38.945312 C 39.816406 -40.789062 38.335938 -42.390625 36.425781 -42.101562 L 33.117188 -41.601562 L 35.132812 -52.390625 L 50.09375 -54.652344 C 53.640625 -55.316406 54.863281 -57.585938 54.554688 -59.621094 C 54.265625 -61.53125 52.648438 -63.175781 50.484375 -62.851562 Z M 50.484375 -62.851562 "/></g></g></g><g fill="#006b37" fill-opacity="0.302"><g transform="translate(342.135105, 189.870738)"><g><path d="M 10.597656 -45.820312 C 13.460938 -46.253906 15.460938 -48.964844 15.019531 -51.894531 C 14.585938 -54.757812 11.886719 -56.695312 9.019531 -56.261719 C 6.15625 -55.828125 4.144531 -53.179688 4.578125 -50.316406 C 5.019531 -47.386719 7.730469 -45.386719 10.597656 -45.820312 Z M 6.90625 -12.050781 L 10.890625 -33.097656 C 11.019531 -33.964844 11.203125 -34.90625 11.109375 -35.542969 C 10.683594 -38.34375 8.363281 -39.492188 6.199219 -39.164062 C 4.222656 -38.867188 2.335938 -37.148438 1.765625 -34 C 0.632812 -27.707031 -0.894531 -19.726562 -2.039062 -13.5 C -2.230469 -12.167969 -2.476562 -10.371094 -2.316406 -9.289062 C -1.410156 -3.304688 4.074219 -0.617188 9.933594 -1.5 C 16.171875 -2.441406 22.472656 -7.300781 24.9375 -21.15625 C 25.007812 -21.554688 25.011719 -21.949219 24.957031 -22.328125 C 24.65625 -24.304688 22.566406 -25.226562 20.65625 -24.9375 C 18.9375 -24.675781 17.351562 -23.527344 16.886719 -21.4375 C 15.144531 -12.707031 12.164062 -9.585938 9.617188 -9.203125 C 8.152344 -8.980469 7.050781 -9.792969 6.871094 -11 C 6.820312 -11.320312 6.835938 -11.648438 6.90625 -12.050781 Z M 6.90625 -12.050781 "/></g></g></g><g fill="#006b37" fill-opacity="0.502"><g transform="translate(296.80347, 192.85184)"><g><path d="M 50.484375 -62.851562 L 22.40625 -58.609375 C 18.777344 -58.0625 17.578125 -55.664062 17.882812 -53.628906 C 18.171875 -51.71875 19.851562 -50.082031 22.144531 -50.429688 L 25.964844 -51.007812 L 23.628906 -40.167969 L 20.699219 -39.726562 C 17.261719 -39.207031 15.921875 -36.855469 16.230469 -34.816406 C 16.53125 -32.84375 18.347656 -31.164062 21.402344 -31.625 L 22.039062 -31.722656 L 19.5625 -19.234375 C 18.300781 -12.921875 15.925781 -11.394531 12.617188 -10.894531 C 10.324219 -10.546875 8.503906 -11.835938 7.699219 -13.277344 C 7.757812 -13.742188 7.753906 -14.195312 7.6875 -14.640625 C 7.246094 -17.570312 4.363281 -18.957031 1.882812 -18.582031 C -0.664062 -18.199219 -2.941406 -16.03125 -2.328125 -11.957031 C -1.414062 -5.90625 5.539062 -0.835938 13.878906 -2.097656 C 20.4375 -3.085938 26.417969 -7.050781 28.507812 -17.785156 C 29.363281 -22.472656 30.597656 -28.523438 31.515625 -33.21875 L 35.335938 -33.796875 C 39.21875 -34.382812 40.414062 -36.84375 40.09375 -38.945312 C 39.816406 -40.789062 38.335938 -42.390625 36.425781 -42.101562 L 33.117188 -41.601562 L 35.132812 -52.390625 L 50.09375 -54.652344 C 53.640625 -55.316406 54.863281 -57.585938 54.554688 -59.621094 C 54.265625 -61.53125 52.648438 -63.175781 50.484375 -62.851562 Z M 50.484375 -62.851562 "/></g></g></g><g fill="#006b37" fill-opacity="0.502"><g transform="translate(339.202273, 186.447673)"><g><path d="M 10.597656 -45.820312 C 13.460938 -46.253906 15.460938 -48.964844 15.019531 -51.894531 C 14.585938 -54.757812 11.886719 -56.695312 9.019531 -56.261719 C 6.15625 -55.828125 4.144531 -53.179688 4.578125 -50.316406 C 5.019531 -47.386719 7.730469 -45.386719 10.597656 -45.820312 Z M 6.90625 -12.050781 L 10.890625 -33.097656 C 11.019531 -33.964844 11.203125 -34.90625 11.109375 -35.542969 C 10.683594 -38.34375 8.363281 -39.492188 6.199219 -39.164062 C 4.222656 -38.867188 2.335938 -37.148438 1.765625 -34 C 0.632812 -27.707031 -0.894531 -19.726562 -2.039062 -13.5 C -2.230469 -12.167969 -2.476562 -10.371094 -2.316406 -9.289062 C -1.410156 -3.304688 4.074219 -0.617188 9.933594 -1.5 C 16.171875 -2.441406 22.472656 -7.300781 24.9375 -21.15625 C 25.007812 -21.554688 25.011719 -21.949219 24.957031 -22.328125 C 24.65625 -24.304688 22.566406 -25.226562 20.65625 -24.9375 C 18.9375 -24.675781 17.351562 -23.527344 16.886719 -21.4375 C 15.144531 -12.707031 12.164062 -9.585938 9.617188 -9.203125 C 8.152344 -8.980469 7.050781 -9.792969 6.871094 -11 C 6.820312 -11.320312 6.835938 -11.648438 6.90625 -12.050781 Z M 6.90625 -12.050781 "/></g></g></g><g fill="#ffe472" fill-opacity="1"><g transform="translate(293.870655, 189.428775)"><g><path d="M 50.484375 -62.851562 L 22.40625 -58.609375 C 18.777344 -58.0625 17.578125 -55.664062 17.882812 -53.628906 C 18.171875 -51.71875 19.851562 -50.082031 22.144531 -50.429688 L 25.964844 -51.007812 L 23.628906 -40.167969 L 20.699219 -39.726562 C 17.261719 -39.207031 15.921875 -36.855469 16.230469 -34.816406 C 16.53125 -32.84375 18.347656 -31.164062 21.402344 -31.625 L 22.039062 -31.722656 L 19.5625 -19.234375 C 18.300781 -12.921875 15.925781 -11.394531 12.617188 -10.894531 C 10.324219 -10.546875 8.503906 -11.835938 7.699219 -13.277344 C 7.757812 -13.742188 7.753906 -14.195312 7.6875 -14.640625 C 7.246094 -17.570312 4.363281 -18.957031 1.882812 -18.582031 C -0.664062 -18.199219 -2.941406 -16.03125 -2.328125 -11.957031 C -1.414062 -5.90625 5.539062 -0.835938 13.878906 -2.097656 C 20.4375 -3.085938 26.417969 -7.050781 28.507812 -17.785156 C 29.363281 -22.472656 30.597656 -28.523438 31.515625 -33.21875 L 35.335938 -33.796875 C 39.21875 -34.382812 40.414062 -36.84375 40.09375 -38.945312 C 39.816406 -40.789062 38.335938 -42.390625 36.425781 -42.101562 L 33.117188 -41.601562 L 35.132812 -52.390625 L 50.09375 -54.652344 C 53.640625 -55.316406 54.863281 -57.585938 54.554688 -59.621094 C 54.265625 -61.53125 52.648438 -63.175781 50.484375 -62.851562 Z M 50.484375 -62.851562 "/></g></g></g><g fill="#ffe472" fill-opacity="1"><g transform="translate(336.269458, 183.024609)"><g><path d="M 10.597656 -45.820312 C 13.460938 -46.253906 15.460938 -48.964844 15.019531 -51.894531 C 14.585938 -54.757812 11.886719 -56.695312 9.019531 -56.261719 C 6.15625 -55.828125 4.144531 -53.179688 4.578125 -50.316406 C 5.019531 -47.386719 7.730469 -45.386719 10.597656 -45.820312 Z M 6.90625 -12.050781 L 10.890625 -33.097656 C 11.019531 -33.964844 11.203125 -34.90625 11.109375 -35.542969 C 10.683594 -38.34375 8.363281 -39.492188 6.199219 -39.164062 C 4.222656 -38.867188 2.335938 -37.148438 1.765625 -34 C 0.632812 -27.707031 -0.894531 -19.726562 -2.039062 -13.5 C -2.230469 -12.167969 -2.476562 -10.371094 -2.316406 -9.289062 C -1.410156 -3.304688 4.074219 -0.617188 9.933594 -1.5 C 16.171875 -2.441406 22.472656 -7.300781 24.9375 -21.15625 C 25.007812 -21.554688 25.011719 -21.949219 24.957031 -22.328125 C 24.65625 -24.304688 22.566406 -25.226562 20.65625 -24.9375 C 18.9375 -24.675781 17.351562 -23.527344 16.886719 -21.4375 C 15.144531 -12.707031 12.164062 -9.585938 9.617188 -9.203125 C 8.152344 -8.980469 7.050781 -9.792969 6.871094 -11 C 6.820312 -11.320312 6.835938 -11.648438 6.90625 -12.050781 Z M 6.90625 -12.050781 "/></g></g></g></svg>