<svg xmlns="http://www.w3.org/2000/svg" xmlns:xlink="http://www.w3.org/1999/xlink" style="isolation:isolate"  width="170" height="75"  viewBox="250 110 0.5 170"><defs><g/></defs><g fill="#006b37" fill-opacity="0.302"><g transform="translate(146.783273, 193.142678)"><g><path d="M 38.839844 -29.988281 C 37.214844 -20.125 28.324219 -14.074219 19.871094 -12.605469 C 13.390625 -11.476562 9.265625 -14.316406 8.433594 -19.105469 C 7.339844 -25.375 10.53125 -29.558594 17.4375 -30.761719 C 20.078125 -29.769531 22.230469 -29.492188 23.992188 -29.796875 C 28.21875 -30.535156 29.941406 -34.390625 29.367188 -37.703125 C 28.863281 -40.589844 26.613281 -43.101562 22.640625 -42.554688 C 18.414062 -41.820312 15.726562 -44.328125 15.152344 -47.640625 C 14.355469 -52.21875 16.359375 -56.125 21.011719 -56.933594 C 23.195312 -57.3125 25.578125 -56.132812 26.363281 -54.527344 C 27.964844 -51.175781 30.21875 -49.898438 32.683594 -50.328125 C 35.148438 -50.757812 37.25 -52.863281 36.921875 -56 C 36.046875 -63.542969 28.382812 -67.941406 19.578125 -66.410156 C 9.503906 -64.65625 2.167969 -55.105469 3.859375 -45.382812 C 4.375 -42.425781 5.8125 -39.988281 7.941406 -38.183594 C -2.210938 -34.382812 -4.324219 -24 -3.023438 -16.53125 C -1.367188 -7.019531 8.3125 -1.445312 21.203125 -3.691406 C 34.378906 -5.984375 45.886719 -15.753906 47.644531 -29.851562 C 47.757812 -30.449219 47.730469 -31.027344 47.644531 -31.519531 C 47.214844 -33.984375 45.007812 -34.980469 42.894531 -34.613281 C 40.921875 -34.269531 39.089844 -32.714844 38.839844 -29.988281 Z M 38.839844 -29.988281 "/></g></g></g><g fill="#006b37" fill-opacity="0.302"><g transform="translate(186.370867, 186.251807)"><g><path d="M 40.027344 -31.5 C 38.054688 -31.15625 36.078125 -29.578125 35.699219 -26.753906 C 34.460938 -17.613281 30.523438 -13.949219 27.355469 -13.398438 C 26.15625 -13.191406 25.339844 -13.703125 25.144531 -14.828125 C 25.046875 -15.390625 25.066406 -16.121094 25.140625 -16.933594 L 29.058594 -41.132812 C 29.195312 -42.027344 29.199219 -42.824219 29.078125 -43.53125 C 28.539062 -46.628906 25.71875 -47.808594 23.113281 -47.355469 C 21.140625 -47.011719 19.257812 -45.742188 18.4375 -43.78125 C 16.796875 -44.441406 13.867188 -45.019531 10.273438 -44.394531 C 5.625 -43.585938 0.992188 -40.167969 0.0351562 -34.410156 L -3.289062 -14.308594 C -3.492188 -12.964844 -3.550781 -11.648438 -3.332031 -10.378906 C -2.3125 -4.53125 3.242188 -0.5625 9.441406 -1.644531 C 12.75 -2.21875 15.875 -4.289062 18.078125 -7.066406 C 20.894531 -4.21875 25.996094 -4.523438 28.109375 -4.894531 C 33.957031 -5.910156 41.261719 -10.230469 43.78125 -22.429688 C 44.292969 -25.347656 44.757812 -27.242188 44.539062 -28.511719 C 44.121094 -30.90625 42.070312 -31.855469 40.027344 -31.5 Z M 16.65625 -28.15625 L 15.101562 -17.074219 C 14.417969 -12.234375 11.925781 -10.714844 10.445312 -10.457031 C 8.898438 -10.1875 7.949219 -11.039062 7.667969 -12.65625 C 7.507812 -13.574219 7.574219 -14.457031 7.671875 -15.125 L 9.71875 -30.070312 C 10.308594 -34.601562 12.183594 -35.507812 13.308594 -35.703125 C 14.648438 -35.9375 16.359375 -34.855469 16.777344 -32.460938 C 16.960938 -31.40625 16.914062 -30.015625 16.65625 -28.15625 Z M 16.65625 -28.15625 "/></g></g></g><g fill="#006b37" fill-opacity="0.302"><g transform="translate(223.352159, 179.814607)"><g><path d="M 33.9375 -26.449219 C 32.96875 -21.996094 31.007812 -18.679688 28.097656 -16.214844 C 28.078125 -17.152344 28.074219 -18.023438 27.914062 -18.941406 C 27.203125 -23.027344 24.34375 -26.519531 21.796875 -29.488281 C 19.96875 -31.636719 18.144531 -33.789062 17.480469 -35.921875 C 19.308594 -37.113281 20.464844 -39.636719 20.097656 -41.75 C 19.570312 -44.777344 16.753906 -47.191406 13.230469 -46.578125 C 10.554688 -46.113281 8.109375 -44.308594 7.25 -41.328125 C 5.433594 -35.496094 3.421875 -29.554688 1.523438 -23.78125 C -2.988281 -21.761719 -4.382812 -16.003906 -3.597656 -11.496094 C -2.394531 -4.589844 5.441406 -0.4375 17.910156 -2.609375 C 30.167969 -4.742188 40.347656 -11.304688 42.800781 -26.394531 C 42.894531 -26.699219 42.832031 -27.054688 42.785156 -27.335938 C 42.429688 -29.378906 39.847656 -30.453125 37.589844 -30.058594 C 35.902344 -29.765625 34.355469 -28.625 33.9375 -26.449219 Z M 11.273438 -24.464844 L 11.675781 -25.914062 C 14.230469 -23.742188 16.511719 -20.65625 17.085938 -17.34375 C 17.664062 -14.035156 16.378906 -10.980469 12.671875 -10.191406 C 10.273438 -9.773438 7.976562 -10.460938 6.882812 -12.160156 C 7.472656 -12.117188 8.035156 -12.214844 8.527344 -12.300781 C 12.613281 -13.011719 14.410156 -16.878906 13.808594 -20.332031 C 13.527344 -21.953125 12.679688 -23.472656 11.273438 -24.464844 Z M 11.273438 -24.464844 "/></g></g></g><g fill="#006b37" fill-opacity="0.302"><g transform="translate(258.501999, 173.6962)"><g><path d="M 7.613281 -13.808594 L 11.570312 -37.363281 C 11.714844 -38.1875 11.734375 -38.914062 11.613281 -39.621094 C 11.109375 -42.507812 8.230469 -44.039062 5.625 -43.585938 C 3.652344 -43.242188 1.746094 -41.675781 1.25 -38.6875 L -3.054688 -12.96875 C -3.316406 -11.542969 -3.292969 -10.167969 -3.074219 -8.902344 C -2.238281 -4.109375 1.742188 -1.246094 6.480469 -1.128906 C -1.78125 2.269531 -9.695312 7.277344 -8.183594 15.941406 C -6.996094 22.773438 0.128906 26.179688 7.035156 24.976562 C 14.007812 23.765625 19.910156 18.890625 21.445312 10.203125 C 21.917969 7.074219 22.503906 3.777344 23.058594 0.703125 C 32.582031 -4.21875 41.980469 -11.515625 44.265625 -27.15625 C 44.378906 -27.757812 44.351562 -28.332031 44.265625 -28.828125 C 43.847656 -31.222656 41.773438 -32.3125 39.660156 -31.945312 C 37.757812 -31.613281 35.921875 -30.058594 35.414062 -27.140625 C 34.058594 -19.5 30.074219 -14.453125 25.070312 -10.679688 L 30.011719 -41.082031 C 30.113281 -41.75 30.085938 -42.328125 30 -42.820312 C 29.496094 -45.707031 26.617188 -47.238281 24.011719 -46.785156 C 22.039062 -46.441406 20.132812 -44.875 19.636719 -41.886719 L 15.679688 -16.664062 C 14.089844 -12.46875 11.867188 -10.628906 9.964844 -10.300781 C 8.699219 -10.078125 7.789062 -10.71875 7.566406 -11.988281 C 7.480469 -12.480469 7.511719 -13.136719 7.613281 -13.808594 Z M 10.730469 6.1875 L 9.875 11.273438 C 9.339844 14.050781 7.390625 15.769531 5.277344 16.136719 C 3.65625 16.421875 2.78125 15.558594 2.558594 14.289062 C 2.484375 13.867188 2.457031 13.289062 2.585938 12.761719 C 3.140625 10.121094 6.359375 8.183594 10.730469 6.1875 Z M 10.730469 6.1875 "/></g></g></g><g fill="#006b37" fill-opacity="0.502"><g transform="translate(143.441852, 189.415251)"><g><path d="M 38.839844 -29.988281 C 37.214844 -20.125 28.324219 -14.074219 19.871094 -12.605469 C 13.390625 -11.476562 9.265625 -14.316406 8.433594 -19.105469 C 7.339844 -25.375 10.53125 -29.558594 17.4375 -30.761719 C 20.078125 -29.769531 22.230469 -29.492188 23.992188 -29.796875 C 28.21875 -30.535156 29.941406 -34.390625 29.367188 -37.703125 C 28.863281 -40.589844 26.613281 -43.101562 22.640625 -42.554688 C 18.414062 -41.820312 15.726562 -44.328125 15.152344 -47.640625 C 14.355469 -52.21875 16.359375 -56.125 21.011719 -56.933594 C 23.195312 -57.3125 25.578125 -56.132812 26.363281 -54.527344 C 27.964844 -51.175781 30.21875 -49.898438 32.683594 -50.328125 C 35.148438 -50.757812 37.25 -52.863281 36.921875 -56 C 36.046875 -63.542969 28.382812 -67.941406 19.578125 -66.410156 C 9.503906 -64.65625 2.167969 -55.105469 3.859375 -45.382812 C 4.375 -42.425781 5.8125 -39.988281 7.941406 -38.183594 C -2.210938 -34.382812 -4.324219 -24 -3.023438 -16.53125 C -1.367188 -7.019531 8.3125 -1.445312 21.203125 -3.691406 C 34.378906 -5.984375 45.886719 -15.753906 47.644531 -29.851562 C 47.757812 -30.449219 47.730469 -31.027344 47.644531 -31.519531 C 47.214844 -33.984375 45.007812 -34.980469 42.894531 -34.613281 C 40.921875 -34.269531 39.089844 -32.714844 38.839844 -29.988281 Z M 38.839844 -29.988281 "/></g></g></g><g fill="#006b37" fill-opacity="0.502"><g transform="translate(183.029446, 182.524381)"><g><path d="M 40.027344 -31.5 C 38.054688 -31.15625 36.078125 -29.578125 35.699219 -26.753906 C 34.460938 -17.613281 30.523438 -13.949219 27.355469 -13.398438 C 26.15625 -13.191406 25.339844 -13.703125 25.144531 -14.828125 C 25.046875 -15.390625 25.066406 -16.121094 25.140625 -16.933594 L 29.058594 -41.132812 C 29.195312 -42.027344 29.199219 -42.824219 29.078125 -43.53125 C 28.539062 -46.628906 25.71875 -47.808594 23.113281 -47.355469 C 21.140625 -47.011719 19.257812 -45.742188 18.4375 -43.78125 C 16.796875 -44.441406 13.867188 -45.019531 10.273438 -44.394531 C 5.625 -43.585938 0.992188 -40.167969 0.0351562 -34.410156 L -3.289062 -14.308594 C -3.492188 -12.964844 -3.550781 -11.648438 -3.332031 -10.378906 C -2.3125 -4.53125 3.242188 -0.5625 9.441406 -1.644531 C 12.75 -2.21875 15.875 -4.289062 18.078125 -7.066406 C 20.894531 -4.21875 25.996094 -4.523438 28.109375 -4.894531 C 33.957031 -5.910156 41.261719 -10.230469 43.78125 -22.429688 C 44.292969 -25.347656 44.757812 -27.242188 44.539062 -28.511719 C 44.121094 -30.90625 42.070312 -31.855469 40.027344 -31.5 Z M 16.65625 -28.15625 L 15.101562 -17.074219 C 14.417969 -12.234375 11.925781 -10.714844 10.445312 -10.457031 C 8.898438 -10.1875 7.949219 -11.039062 7.667969 -12.65625 C 7.507812 -13.574219 7.574219 -14.457031 7.671875 -15.125 L 9.71875 -30.070312 C 10.308594 -34.601562 12.183594 -35.507812 13.308594 -35.703125 C 14.648438 -35.9375 16.359375 -34.855469 16.777344 -32.460938 C 16.960938 -31.40625 16.914062 -30.015625 16.65625 -28.15625 Z M 16.65625 -28.15625 "/></g></g></g><g fill="#006b37" fill-opacity="0.502"><g transform="translate(220.010737, 176.08718)"><g><path d="M 33.9375 -26.449219 C 32.96875 -21.996094 31.007812 -18.679688 28.097656 -16.214844 C 28.078125 -17.152344 28.074219 -18.023438 27.914062 -18.941406 C 27.203125 -23.027344 24.34375 -26.519531 21.796875 -29.488281 C 19.96875 -31.636719 18.144531 -33.789062 17.480469 -35.921875 C 19.308594 -37.113281 20.464844 -39.636719 20.097656 -41.75 C 19.570312 -44.777344 16.753906 -47.191406 13.230469 -46.578125 C 10.554688 -46.113281 8.109375 -44.308594 7.25 -41.328125 C 5.433594 -35.496094 3.421875 -29.554688 1.523438 -23.78125 C -2.988281 -21.761719 -4.382812 -16.003906 -3.597656 -11.496094 C -2.394531 -4.589844 5.441406 -0.4375 17.910156 -2.609375 C 30.167969 -4.742188 40.347656 -11.304688 42.800781 -26.394531 C 42.894531 -26.699219 42.832031 -27.054688 42.785156 -27.335938 C 42.429688 -29.378906 39.847656 -30.453125 37.589844 -30.058594 C 35.902344 -29.765625 34.355469 -28.625 33.9375 -26.449219 Z M 11.273438 -24.464844 L 11.675781 -25.914062 C 14.230469 -23.742188 16.511719 -20.65625 17.085938 -17.34375 C 17.664062 -14.035156 16.378906 -10.980469 12.671875 -10.191406 C 10.273438 -9.773438 7.976562 -10.460938 6.882812 -12.160156 C 7.472656 -12.117188 8.035156 -12.214844 8.527344 -12.300781 C 12.613281 -13.011719 14.410156 -16.878906 13.808594 -20.332031 C 13.527344 -21.953125 12.679688 -23.472656 11.273438 -24.464844 Z M 11.273438 -24.464844 "/></g></g></g><g fill="#006b37" fill-opacity="0.502"><g transform="translate(255.160578, 169.968774)"><g><path d="M 7.613281 -13.808594 L 11.570312 -37.363281 C 11.714844 -38.1875 11.734375 -38.914062 11.613281 -39.621094 C 11.109375 -42.507812 8.230469 -44.039062 5.625 -43.585938 C 3.652344 -43.242188 1.746094 -41.675781 1.25 -38.6875 L -3.054688 -12.96875 C -3.316406 -11.542969 -3.292969 -10.167969 -3.074219 -8.902344 C -2.238281 -4.109375 1.742188 -1.246094 6.480469 -1.128906 C -1.78125 2.269531 -9.695312 7.277344 -8.183594 15.941406 C -6.996094 22.773438 0.128906 26.179688 7.035156 24.976562 C 14.007812 23.765625 19.910156 18.890625 21.445312 10.203125 C 21.917969 7.074219 22.503906 3.777344 23.058594 0.703125 C 32.582031 -4.21875 41.980469 -11.515625 44.265625 -27.15625 C 44.378906 -27.757812 44.351562 -28.332031 44.265625 -28.828125 C 43.847656 -31.222656 41.773438 -32.3125 39.660156 -31.945312 C 37.757812 -31.613281 35.921875 -30.058594 35.414062 -27.140625 C 34.058594 -19.5 30.074219 -14.453125 25.070312 -10.679688 L 30.011719 -41.082031 C 30.113281 -41.75 30.085938 -42.328125 30 -42.820312 C 29.496094 -45.707031 26.617188 -47.238281 24.011719 -46.785156 C 22.039062 -46.441406 20.132812 -44.875 19.636719 -41.886719 L 15.679688 -16.664062 C 14.089844 -12.46875 11.867188 -10.628906 9.964844 -10.300781 C 8.699219 -10.078125 7.789062 -10.71875 7.566406 -11.988281 C 7.480469 -12.480469 7.511719 -13.136719 7.613281 -13.808594 Z M 10.730469 6.1875 L 9.875 11.273438 C 9.339844 14.050781 7.390625 15.769531 5.277344 16.136719 C 3.65625 16.421875 2.78125 15.558594 2.558594 14.289062 C 2.484375 13.867188 2.457031 13.289062 2.585938 12.761719 C 3.140625 10.121094 6.359375 8.183594 10.730469 6.1875 Z M 10.730469 6.1875 "/></g></g></g><g fill="#ffe472" fill-opacity="1"><g transform="translate(140.100435, 185.687808)"><g><path d="M 38.839844 -29.988281 C 37.214844 -20.125 28.324219 -14.074219 19.871094 -12.605469 C 13.390625 -11.476562 9.265625 -14.316406 8.433594 -19.105469 C 7.339844 -25.375 10.53125 -29.558594 17.4375 -30.761719 C 20.078125 -29.769531 22.230469 -29.492188 23.992188 -29.796875 C 28.21875 -30.535156 29.941406 -34.390625 29.367188 -37.703125 C 28.863281 -40.589844 26.613281 -43.101562 22.640625 -42.554688 C 18.414062 -41.820312 15.726562 -44.328125 15.152344 -47.640625 C 14.355469 -52.21875 16.359375 -56.125 21.011719 -56.933594 C 23.195312 -57.3125 25.578125 -56.132812 26.363281 -54.527344 C 27.964844 -51.175781 30.21875 -49.898438 32.683594 -50.328125 C 35.148438 -50.757812 37.25 -52.863281 36.921875 -56 C 36.046875 -63.542969 28.382812 -67.941406 19.578125 -66.410156 C 9.503906 -64.65625 2.167969 -55.105469 3.859375 -45.382812 C 4.375 -42.425781 5.8125 -39.988281 7.941406 -38.183594 C -2.210938 -34.382812 -4.324219 -24 -3.023438 -16.53125 C -1.367188 -7.019531 8.3125 -1.445312 21.203125 -3.691406 C 34.378906 -5.984375 45.886719 -15.753906 47.644531 -29.851562 C 47.757812 -30.449219 47.730469 -31.027344 47.644531 -31.519531 C 47.214844 -33.984375 45.007812 -34.980469 42.894531 -34.613281 C 40.921875 -34.269531 39.089844 -32.714844 38.839844 -29.988281 Z M 38.839844 -29.988281 "/></g></g></g><g fill="#ffe472" fill-opacity="1"><g transform="translate(179.688029, 178.796938)"><g><path d="M 40.027344 -31.5 C 38.054688 -31.15625 36.078125 -29.578125 35.699219 -26.753906 C 34.460938 -17.613281 30.523438 -13.949219 27.355469 -13.398438 C 26.15625 -13.191406 25.339844 -13.703125 25.144531 -14.828125 C 25.046875 -15.390625 25.066406 -16.121094 25.140625 -16.933594 L 29.058594 -41.132812 C 29.195312 -42.027344 29.199219 -42.824219 29.078125 -43.53125 C 28.539062 -46.628906 25.71875 -47.808594 23.113281 -47.355469 C 21.140625 -47.011719 19.257812 -45.742188 18.4375 -43.78125 C 16.796875 -44.441406 13.867188 -45.019531 10.273438 -44.394531 C 5.625 -43.585938 0.992188 -40.167969 0.0351562 -34.410156 L -3.289062 -14.308594 C -3.492188 -12.964844 -3.550781 -11.648438 -3.332031 -10.378906 C -2.3125 -4.53125 3.242188 -0.5625 9.441406 -1.644531 C 12.75 -2.21875 15.875 -4.289062 18.078125 -7.066406 C 20.894531 -4.21875 25.996094 -4.523438 28.109375 -4.894531 C 33.957031 -5.910156 41.261719 -10.230469 43.78125 -22.429688 C 44.292969 -25.347656 44.757812 -27.242188 44.539062 -28.511719 C 44.121094 -30.90625 42.070312 -31.855469 40.027344 -31.5 Z M 16.65625 -28.15625 L 15.101562 -17.074219 C 14.417969 -12.234375 11.925781 -10.714844 10.445312 -10.457031 C 8.898438 -10.1875 7.949219 -11.039062 7.667969 -12.65625 C 7.507812 -13.574219 7.574219 -14.457031 7.671875 -15.125 L 9.71875 -30.070312 C 10.308594 -34.601562 12.183594 -35.507812 13.308594 -35.703125 C 14.648438 -35.9375 16.359375 -34.855469 16.777344 -32.460938 C 16.960938 -31.40625 16.914062 -30.015625 16.65625 -28.15625 Z M 16.65625 -28.15625 "/></g></g></g><g fill="#ffe472" fill-opacity="1"><g transform="translate(216.66932, 172.359737)"><g><path d="M 33.9375 -26.449219 C 32.96875 -21.996094 31.007812 -18.679688 28.097656 -16.214844 C 28.078125 -17.152344 28.074219 -18.023438 27.914062 -18.941406 C 27.203125 -23.027344 24.34375 -26.519531 21.796875 -29.488281 C 19.96875 -31.636719 18.144531 -33.789062 17.480469 -35.921875 C 19.308594 -37.113281 20.464844 -39.636719 20.097656 -41.75 C 19.570312 -44.777344 16.753906 -47.191406 13.230469 -46.578125 C 10.554688 -46.113281 8.109375 -44.308594 7.25 -41.328125 C 5.433594 -35.496094 3.421875 -29.554688 1.523438 -23.78125 C -2.988281 -21.761719 -4.382812 -16.003906 -3.597656 -11.496094 C -2.394531 -4.589844 5.441406 -0.4375 17.910156 -2.609375 C 30.167969 -4.742188 40.347656 -11.304688 42.800781 -26.394531 C 42.894531 -26.699219 42.832031 -27.054688 42.785156 -27.335938 C 42.429688 -29.378906 39.847656 -30.453125 37.589844 -30.058594 C 35.902344 -29.765625 34.355469 -28.625 33.9375 -26.449219 Z M 11.273438 -24.464844 L 11.675781 -25.914062 C 14.230469 -23.742188 16.511719 -20.65625 17.085938 -17.34375 C 17.664062 -14.035156 16.378906 -10.980469 12.671875 -10.191406 C 10.273438 -9.773438 7.976562 -10.460938 6.882812 -12.160156 C 7.472656 -12.117188 8.035156 -12.214844 8.527344 -12.300781 C 12.613281 -13.011719 14.410156 -16.878906 13.808594 -20.332031 C 13.527344 -21.953125 12.679688 -23.472656 11.273438 -24.464844 Z M 11.273438 -24.464844 "/></g></g></g><g fill="#ffe472" fill-opacity="1"><g transform="translate(251.819161, 166.241331)"><g><path d="M 7.613281 -13.808594 L 11.570312 -37.363281 C 11.714844 -38.1875 11.734375 -38.914062 11.613281 -39.621094 C 11.109375 -42.507812 8.230469 -44.039062 5.625 -43.585938 C 3.652344 -43.242188 1.746094 -41.675781 1.25 -38.6875 L -3.054688 -12.96875 C -3.316406 -11.542969 -3.292969 -10.167969 -3.074219 -8.902344 C -2.238281 -4.109375 1.742188 -1.246094 6.480469 -1.128906 C -1.78125 2.269531 -9.695312 7.277344 -8.183594 15.941406 C -6.996094 22.773438 0.128906 26.179688 7.035156 24.976562 C 14.007812 23.765625 19.910156 18.890625 21.445312 10.203125 C 21.917969 7.074219 22.503906 3.777344 23.058594 0.703125 C 32.582031 -4.21875 41.980469 -11.515625 44.265625 -27.15625 C 44.378906 -27.757812 44.351562 -28.332031 44.265625 -28.828125 C 43.847656 -31.222656 41.773438 -32.3125 39.660156 -31.945312 C 37.757812 -31.613281 35.921875 -30.058594 35.414062 -27.140625 C 34.058594 -19.5 30.074219 -14.453125 25.070312 -10.679688 L 30.011719 -41.082031 C 30.113281 -41.75 30.085938 -42.328125 30 -42.820312 C 29.496094 -45.707031 26.617188 -47.238281 24.011719 -46.785156 C 22.039062 -46.441406 20.132812 -44.875 19.636719 -41.886719 L 15.679688 -16.664062 C 14.089844 -12.46875 11.867188 -10.628906 9.964844 -10.300781 C 8.699219 -10.078125 7.789062 -10.71875 7.566406 -11.988281 C 7.480469 -12.480469 7.511719 -13.136719 7.613281 -13.808594 Z M 10.730469 6.1875 L 9.875 11.273438 C 9.339844 14.050781 7.390625 15.769531 5.277344 16.136719 C 3.65625 16.421875 2.78125 15.558594 2.558594 14.289062 C 2.484375 13.867188 2.457031 13.289062 2.585938 12.761719 C 3.140625 10.121094 6.359375 8.183594 10.730469 6.1875 Z M 10.730469 6.1875 "/></g></g></g><g fill="#006b37" fill-opacity="0.302"><g transform="translate(205.33573, 244.358367)"><g><path d="M 50.460938 -62.816406 L 22.394531 -58.578125 C 18.769531 -58.03125 17.566406 -55.636719 17.875 -53.601562 C 18.164062 -51.691406 19.84375 -50.058594 22.132812 -50.402344 L 25.949219 -50.980469 L 23.617188 -40.148438 L 20.691406 -39.707031 C 17.253906 -39.1875 15.914062 -36.835938 16.222656 -34.800781 C 16.519531 -32.828125 18.335938 -31.148438 21.390625 -31.609375 L 22.027344 -31.707031 L 19.550781 -19.226562 C 18.292969 -12.917969 15.917969 -11.386719 12.609375 -10.886719 C 10.320312 -10.542969 8.496094 -11.828125 7.695312 -13.269531 C 7.753906 -13.734375 7.75 -14.1875 7.683594 -14.632812 C 7.242188 -17.5625 4.363281 -18.949219 1.882812 -18.574219 C -0.664062 -18.191406 -2.941406 -16.023438 -2.324219 -11.949219 C -1.414062 -5.90625 5.535156 -0.835938 13.875 -2.09375 C 20.429688 -3.085938 26.402344 -7.046875 28.492188 -17.777344 C 29.347656 -22.460938 30.582031 -28.507812 31.5 -33.203125 L 35.320312 -33.777344 C 39.199219 -34.367188 40.390625 -36.824219 40.074219 -38.921875 C 39.796875 -40.769531 38.316406 -42.367188 36.40625 -42.078125 L 33.097656 -41.578125 L 35.113281 -52.363281 L 50.070312 -54.621094 C 53.613281 -55.289062 54.835938 -57.554688 54.527344 -59.59375 C 54.238281 -61.5 52.621094 -63.144531 50.460938 -62.816406 Z M 50.460938 -62.816406 "/></g></g></g><g fill="#006b37" fill-opacity="0.302"><g transform="translate(247.712721, 237.957495)"><g><path d="M 10.59375 -45.796875 C 13.457031 -46.226562 15.453125 -48.9375 15.011719 -51.867188 C 14.578125 -54.730469 11.878906 -56.664062 9.015625 -56.234375 C 6.152344 -55.800781 4.144531 -53.152344 4.574219 -50.289062 C 5.019531 -47.363281 7.726562 -45.363281 10.59375 -45.796875 Z M 6.902344 -12.042969 L 10.886719 -33.082031 C 11.015625 -33.949219 11.199219 -34.886719 11.101562 -35.523438 C 10.679688 -38.324219 8.359375 -39.46875 6.195312 -39.144531 C 4.222656 -38.84375 2.332031 -37.128906 1.765625 -33.984375 C 0.632812 -27.695312 -0.894531 -19.71875 -2.039062 -13.492188 C -2.226562 -12.160156 -2.476562 -10.367188 -2.3125 -9.285156 C -1.410156 -3.300781 4.074219 -0.613281 9.925781 -1.5 C 16.164062 -2.441406 22.460938 -7.296875 24.925781 -21.144531 C 24.996094 -21.542969 25 -21.9375 24.941406 -22.316406 C 24.644531 -24.289062 22.554688 -25.210938 20.644531 -24.921875 C 18.925781 -24.664062 17.34375 -23.511719 16.875 -21.425781 C 15.136719 -12.699219 12.15625 -9.582031 9.609375 -9.199219 C 8.148438 -8.976562 7.046875 -9.785156 6.867188 -10.996094 C 6.816406 -11.3125 6.832031 -11.640625 6.902344 -12.042969 Z M 6.902344 -12.042969 "/></g></g></g><g fill="#006b37" fill-opacity="0.502"><g transform="translate(202.404417, 240.937059)"><g><path d="M 50.460938 -62.816406 L 22.394531 -58.578125 C 18.769531 -58.03125 17.566406 -55.636719 17.875 -53.601562 C 18.164062 -51.691406 19.84375 -50.058594 22.132812 -50.402344 L 25.949219 -50.980469 L 23.617188 -40.148438 L 20.691406 -39.707031 C 17.253906 -39.1875 15.914062 -36.835938 16.222656 -34.800781 C 16.519531 -32.828125 18.335938 -31.148438 21.390625 -31.609375 L 22.027344 -31.707031 L 19.550781 -19.226562 C 18.292969 -12.917969 15.917969 -11.386719 12.609375 -10.886719 C 10.320312 -10.542969 8.496094 -11.828125 7.695312 -13.269531 C 7.753906 -13.734375 7.75 -14.1875 7.683594 -14.632812 C 7.242188 -17.5625 4.363281 -18.949219 1.882812 -18.574219 C -0.664062 -18.191406 -2.941406 -16.023438 -2.324219 -11.949219 C -1.414062 -5.90625 5.535156 -0.835938 13.875 -2.09375 C 20.429688 -3.085938 26.402344 -7.046875 28.492188 -17.777344 C 29.347656 -22.460938 30.582031 -28.507812 31.5 -33.203125 L 35.320312 -33.777344 C 39.199219 -34.367188 40.390625 -36.824219 40.074219 -38.921875 C 39.796875 -40.769531 38.316406 -42.367188 36.40625 -42.078125 L 33.097656 -41.578125 L 35.113281 -52.363281 L 50.070312 -54.621094 C 53.613281 -55.289062 54.835938 -57.554688 54.527344 -59.59375 C 54.238281 -61.5 52.621094 -63.144531 50.460938 -62.816406 Z M 50.460938 -62.816406 "/></g></g></g><g fill="#006b37" fill-opacity="0.502"><g transform="translate(244.781408, 234.536188)"><g><path d="M 10.59375 -45.796875 C 13.457031 -46.226562 15.453125 -48.9375 15.011719 -51.867188 C 14.578125 -54.730469 11.878906 -56.664062 9.015625 -56.234375 C 6.152344 -55.800781 4.144531 -53.152344 4.574219 -50.289062 C 5.019531 -47.363281 7.726562 -45.363281 10.59375 -45.796875 Z M 6.902344 -12.042969 L 10.886719 -33.082031 C 11.015625 -33.949219 11.199219 -34.886719 11.101562 -35.523438 C 10.679688 -38.324219 8.359375 -39.46875 6.195312 -39.144531 C 4.222656 -38.84375 2.332031 -37.128906 1.765625 -33.984375 C 0.632812 -27.695312 -0.894531 -19.71875 -2.039062 -13.492188 C -2.226562 -12.160156 -2.476562 -10.367188 -2.3125 -9.285156 C -1.410156 -3.300781 4.074219 -0.613281 9.925781 -1.5 C 16.164062 -2.441406 22.460938 -7.296875 24.925781 -21.144531 C 24.996094 -21.542969 25 -21.9375 24.941406 -22.316406 C 24.644531 -24.289062 22.554688 -25.210938 20.644531 -24.921875 C 18.925781 -24.664062 17.34375 -23.511719 16.875 -21.425781 C 15.136719 -12.699219 12.15625 -9.582031 9.609375 -9.199219 C 8.148438 -8.976562 7.046875 -9.785156 6.867188 -10.996094 C 6.816406 -11.3125 6.832031 -11.640625 6.902344 -12.042969 Z M 6.902344 -12.042969 "/></g></g></g><g fill="#ffe472" fill-opacity="1"><g transform="translate(199.473103, 237.515754)"><g><path d="M 50.460938 -62.816406 L 22.394531 -58.578125 C 18.769531 -58.03125 17.566406 -55.636719 17.875 -53.601562 C 18.164062 -51.691406 19.84375 -50.058594 22.132812 -50.402344 L 25.949219 -50.980469 L 23.617188 -40.148438 L 20.691406 -39.707031 C 17.253906 -39.1875 15.914062 -36.835938 16.222656 -34.800781 C 16.519531 -32.828125 18.335938 -31.148438 21.390625 -31.609375 L 22.027344 -31.707031 L 19.550781 -19.226562 C 18.292969 -12.917969 15.917969 -11.386719 12.609375 -10.886719 C 10.320312 -10.542969 8.496094 -11.828125 7.695312 -13.269531 C 7.753906 -13.734375 7.75 -14.1875 7.683594 -14.632812 C 7.242188 -17.5625 4.363281 -18.949219 1.882812 -18.574219 C -0.664062 -18.191406 -2.941406 -16.023438 -2.324219 -11.949219 C -1.414062 -5.90625 5.535156 -0.835938 13.875 -2.09375 C 20.429688 -3.085938 26.402344 -7.046875 28.492188 -17.777344 C 29.347656 -22.460938 30.582031 -28.507812 31.5 -33.203125 L 35.320312 -33.777344 C 39.199219 -34.367188 40.390625 -36.824219 40.074219 -38.921875 C 39.796875 -40.769531 38.316406 -42.367188 36.40625 -42.078125 L 33.097656 -41.578125 L 35.113281 -52.363281 L 50.070312 -54.621094 C 53.613281 -55.289062 54.835938 -57.554688 54.527344 -59.59375 C 54.238281 -61.5 52.621094 -63.144531 50.460938 -62.816406 Z M 50.460938 -62.816406 "/></g></g></g><g fill="#ffe472" fill-opacity="1"><g transform="translate(241.850095, 231.114882)"><g><path d="M 10.59375 -45.796875 C 13.457031 -46.226562 15.453125 -48.9375 15.011719 -51.867188 C 14.578125 -54.730469 11.878906 -56.664062 9.015625 -56.234375 C 6.152344 -55.800781 4.144531 -53.152344 4.574219 -50.289062 C 5.019531 -47.363281 7.726562 -45.363281 10.59375 -45.796875 Z M 6.902344 -12.042969 L 10.886719 -33.082031 C 11.015625 -33.949219 11.199219 -34.886719 11.101562 -35.523438 C 10.679688 -38.324219 8.359375 -39.46875 6.195312 -39.144531 C 4.222656 -38.84375 2.332031 -37.128906 1.765625 -33.984375 C 0.632812 -27.695312 -0.894531 -19.71875 -2.039062 -13.492188 C -2.226562 -12.160156 -2.476562 -10.367188 -2.3125 -9.285156 C -1.410156 -3.300781 4.074219 -0.613281 9.925781 -1.5 C 16.164062 -2.441406 22.460938 -7.296875 24.925781 -21.144531 C 24.996094 -21.542969 25 -21.9375 24.941406 -22.316406 C 24.644531 -24.289062 22.554688 -25.210938 20.644531 -24.921875 C 18.925781 -24.664062 17.34375 -23.511719 16.875 -21.425781 C 15.136719 -12.699219 12.15625 -9.582031 9.609375 -9.199219 C 8.148438 -8.976562 7.046875 -9.785156 6.867188 -10.996094 C 6.816406 -11.3125 6.832031 -11.640625 6.902344 -12.042969 Z M 6.902344 -12.042969 "/></g></g></g></svg>