<svg xmlns="http://www.w3.org/2000/svg" xmlns:xlink="http://www.w3.org/1999/xlink" width="32" height="32" zoomAndPan="magnify" viewBox="0 0 375 374.999991" preserveAspectRatio="xMidYMid meet" version="1.0"><defs><g/></defs><g fill="#006b37" fill-opacity="0.302"><g transform="translate(122.43193, 339.687424)"><g><path d="M 151.539062 -188.652344 L 67.257812 -175.921875 C 56.363281 -174.277344 52.757812 -167.085938 53.679688 -160.972656 C 54.546875 -155.238281 59.589844 -150.332031 66.46875 -151.371094 L 77.9375 -153.101562 L 70.925781 -120.570312 L 62.132812 -119.242188 C 51.8125 -117.683594 47.796875 -110.628906 48.722656 -104.511719 C 49.617188 -98.585938 55.070312 -93.546875 64.242188 -94.933594 L 66.152344 -95.21875 L 58.71875 -57.738281 C 54.933594 -38.792969 47.808594 -34.195312 37.871094 -32.695312 C 30.992188 -31.65625 25.519531 -35.523438 23.105469 -39.847656 C 23.289062 -41.246094 23.277344 -42.609375 23.074219 -43.949219 C 21.746094 -52.742188 13.101562 -56.90625 5.648438 -55.78125 C -1.996094 -54.628906 -8.832031 -48.121094 -6.984375 -35.890625 C -4.242188 -17.734375 16.628906 -2.511719 41.664062 -6.292969 C 61.347656 -9.265625 79.292969 -21.164062 85.570312 -53.390625 C 88.136719 -67.460938 91.84375 -85.613281 94.601562 -99.710938 L 106.070312 -101.445312 C 117.726562 -103.207031 121.304688 -110.585938 120.351562 -116.894531 C 119.511719 -122.4375 115.074219 -127.238281 109.339844 -126.375 L 99.402344 -124.871094 L 105.457031 -157.257812 L 150.371094 -164.042969 C 161.015625 -166.042969 164.675781 -172.851562 163.753906 -178.964844 C 162.886719 -184.699219 158.039062 -189.636719 151.539062 -188.652344 Z M 151.539062 -188.652344 "/></g></g></g><g fill="#006b37" fill-opacity="0.302"><g transform="translate(249.698246, 320.464368)"><g><path d="M 31.808594 -137.535156 C 40.410156 -138.832031 46.414062 -146.972656 45.085938 -155.761719 C 43.785156 -164.363281 35.675781 -170.175781 27.074219 -168.878906 C 18.476562 -167.578125 12.441406 -159.628906 13.742188 -151.03125 C 15.070312 -142.238281 23.210938 -136.234375 31.808594 -137.535156 Z M 20.730469 -36.167969 L 32.691406 -99.351562 C 33.078125 -101.953125 33.628906 -104.773438 33.339844 -106.683594 C 32.070312 -115.09375 25.101562 -118.535156 18.601562 -117.554688 C 12.679688 -116.660156 7.007812 -111.503906 5.304688 -102.058594 C 1.902344 -83.167969 -2.6875 -59.214844 -6.121094 -40.515625 C -6.6875 -36.519531 -7.4375 -31.128906 -6.949219 -27.882812 C -4.234375 -9.917969 12.230469 -1.847656 29.8125 -4.503906 C 48.542969 -7.332031 67.453125 -21.917969 74.855469 -63.5 C 75.0625 -64.703125 75.082031 -65.878906 74.910156 -67.027344 C 74.015625 -72.949219 67.730469 -75.714844 62 -74.847656 C 56.839844 -74.070312 52.082031 -70.613281 50.683594 -64.34375 C 45.453125 -38.140625 36.507812 -28.777344 28.863281 -27.621094 C 24.46875 -26.957031 21.167969 -29.390625 20.621094 -33.023438 C 20.476562 -33.976562 20.523438 -34.960938 20.730469 -36.167969 Z M 20.730469 -36.167969 "/></g></g></g><g fill="#006b37" fill-opacity="0.502"><g transform="translate(113.628629, 329.412603)"><g><path d="M 151.539062 -188.652344 L 67.257812 -175.921875 C 56.363281 -174.277344 52.757812 -167.085938 53.679688 -160.972656 C 54.546875 -155.238281 59.589844 -150.332031 66.46875 -151.371094 L 77.9375 -153.101562 L 70.925781 -120.570312 L 62.132812 -119.242188 C 51.8125 -117.683594 47.796875 -110.628906 48.722656 -104.511719 C 49.617188 -98.585938 55.070312 -93.546875 64.242188 -94.933594 L 66.152344 -95.21875 L 58.71875 -57.738281 C 54.933594 -38.792969 47.808594 -34.195312 37.871094 -32.695312 C 30.992188 -31.65625 25.519531 -35.523438 23.105469 -39.847656 C 23.289062 -41.246094 23.277344 -42.609375 23.074219 -43.949219 C 21.746094 -52.742188 13.101562 -56.90625 5.648438 -55.78125 C -1.996094 -54.628906 -8.832031 -48.121094 -6.984375 -35.890625 C -4.242188 -17.734375 16.628906 -2.511719 41.664062 -6.292969 C 61.347656 -9.265625 79.292969 -21.164062 85.570312 -53.390625 C 88.136719 -67.460938 91.84375 -85.613281 94.601562 -99.710938 L 106.070312 -101.445312 C 117.726562 -103.207031 121.304688 -110.585938 120.351562 -116.894531 C 119.511719 -122.4375 115.074219 -127.238281 109.339844 -126.375 L 99.402344 -124.871094 L 105.457031 -157.257812 L 150.371094 -164.042969 C 161.015625 -166.042969 164.675781 -172.851562 163.753906 -178.964844 C 162.886719 -184.699219 158.039062 -189.636719 151.539062 -188.652344 Z M 151.539062 -188.652344 "/></g></g></g><g fill="#006b37" fill-opacity="0.502"><g transform="translate(240.894946, 310.189546)"><g><path d="M 31.808594 -137.535156 C 40.410156 -138.832031 46.414062 -146.972656 45.085938 -155.761719 C 43.785156 -164.363281 35.675781 -170.175781 27.074219 -168.878906 C 18.476562 -167.578125 12.441406 -159.628906 13.742188 -151.03125 C 15.070312 -142.238281 23.210938 -136.234375 31.808594 -137.535156 Z M 20.730469 -36.167969 L 32.691406 -99.351562 C 33.078125 -101.953125 33.628906 -104.773438 33.339844 -106.683594 C 32.070312 -115.09375 25.101562 -118.535156 18.601562 -117.554688 C 12.679688 -116.660156 7.007812 -111.503906 5.304688 -102.058594 C 1.902344 -83.167969 -2.6875 -59.214844 -6.121094 -40.515625 C -6.6875 -36.519531 -7.4375 -31.128906 -6.949219 -27.882812 C -4.234375 -9.917969 12.230469 -1.847656 29.8125 -4.503906 C 48.542969 -7.332031 67.453125 -21.917969 74.855469 -63.5 C 75.0625 -64.703125 75.082031 -65.878906 74.910156 -67.027344 C 74.015625 -72.949219 67.730469 -75.714844 62 -74.847656 C 56.839844 -74.070312 52.082031 -70.613281 50.683594 -64.34375 C 45.453125 -38.140625 36.507812 -28.777344 28.863281 -27.621094 C 24.46875 -26.957031 21.167969 -29.390625 20.621094 -33.023438 C 20.476562 -33.976562 20.523438 -34.960938 20.730469 -36.167969 Z M 20.730469 -36.167969 "/></g></g></g><g fill="#ffe472" fill-opacity="1"><g transform="translate(104.825329, 319.13775)"><g><path d="M 151.539062 -188.652344 L 67.257812 -175.921875 C 56.363281 -174.277344 52.757812 -167.085938 53.679688 -160.972656 C 54.546875 -155.238281 59.589844 -150.332031 66.46875 -151.371094 L 77.9375 -153.101562 L 70.925781 -120.570312 L 62.132812 -119.242188 C 51.8125 -117.683594 47.796875 -110.628906 48.722656 -104.511719 C 49.617188 -98.585938 55.070312 -93.546875 64.242188 -94.933594 L 66.152344 -95.21875 L 58.71875 -57.738281 C 54.933594 -38.792969 47.808594 -34.195312 37.871094 -32.695312 C 30.992188 -31.65625 25.519531 -35.523438 23.105469 -39.847656 C 23.289062 -41.246094 23.277344 -42.609375 23.074219 -43.949219 C 21.746094 -52.742188 13.101562 -56.90625 5.648438 -55.78125 C -1.996094 -54.628906 -8.832031 -48.121094 -6.984375 -35.890625 C -4.242188 -17.734375 16.628906 -2.511719 41.664062 -6.292969 C 61.347656 -9.265625 79.292969 -21.164062 85.570312 -53.390625 C 88.136719 -67.460938 91.84375 -85.613281 94.601562 -99.710938 L 106.070312 -101.445312 C 117.726562 -103.207031 121.304688 -110.585938 120.351562 -116.894531 C 119.511719 -122.4375 115.074219 -127.238281 109.339844 -126.375 L 99.402344 -124.871094 L 105.457031 -157.257812 L 150.371094 -164.042969 C 161.015625 -166.042969 164.675781 -172.851562 163.753906 -178.964844 C 162.886719 -184.699219 158.039062 -189.636719 151.539062 -188.652344 Z M 151.539062 -188.652344 "/></g></g></g><g fill="#ffe472" fill-opacity="1"><g transform="translate(232.091646, 299.914693)"><g><path d="M 31.808594 -137.535156 C 40.410156 -138.832031 46.414062 -146.972656 45.085938 -155.761719 C 43.785156 -164.363281 35.675781 -170.175781 27.074219 -168.878906 C 18.476562 -167.578125 12.441406 -159.628906 13.742188 -151.03125 C 15.070312 -142.238281 23.210938 -136.234375 31.808594 -137.535156 Z M 20.730469 -36.167969 L 32.691406 -99.351562 C 33.078125 -101.953125 33.628906 -104.773438 33.339844 -106.683594 C 32.070312 -115.09375 25.101562 -118.535156 18.601562 -117.554688 C 12.679688 -116.660156 7.007812 -111.503906 5.304688 -102.058594 C 1.902344 -83.167969 -2.6875 -59.214844 -6.121094 -40.515625 C -6.6875 -36.519531 -7.4375 -31.128906 -6.949219 -27.882812 C -4.234375 -9.917969 12.230469 -1.847656 29.8125 -4.503906 C 48.542969 -7.332031 67.453125 -21.917969 74.855469 -63.5 C 75.0625 -64.703125 75.082031 -65.878906 74.910156 -67.027344 C 74.015625 -72.949219 67.730469 -75.714844 62 -74.847656 C 56.839844 -74.070312 52.082031 -70.613281 50.683594 -64.34375 C 45.453125 -38.140625 36.507812 -28.777344 28.863281 -27.621094 C 24.46875 -26.957031 21.167969 -29.390625 20.621094 -33.023438 C 20.476562 -33.976562 20.523438 -34.960938 20.730469 -36.167969 Z M 20.730469 -36.167969 "/></g></g></g><g fill="#006b37" fill-opacity="0.302"><g transform="translate(80.156957, 263.624501)"><g><path d="M 116.636719 -90.058594 C 111.765625 -60.433594 85.066406 -42.273438 59.675781 -37.851562 C 40.210938 -34.464844 27.828125 -42.992188 25.324219 -57.378906 C 22.046875 -76.207031 31.632812 -88.773438 52.363281 -92.382812 C 60.296875 -89.40625 66.761719 -88.566406 72.050781 -89.488281 C 84.746094 -91.699219 89.921875 -103.28125 88.191406 -113.226562 C 86.683594 -121.898438 79.917969 -129.441406 68 -127.800781 C 55.304688 -125.59375 47.234375 -133.125 45.503906 -143.070312 C 43.109375 -156.820312 49.132812 -168.550781 63.097656 -170.980469 C 69.65625 -172.121094 76.8125 -168.574219 79.179688 -163.753906 C 83.980469 -153.691406 90.753906 -149.855469 98.15625 -151.144531 C 105.5625 -152.433594 111.871094 -158.761719 110.886719 -168.183594 C 108.253906 -190.832031 85.242188 -204.046875 58.796875 -199.441406 C 28.542969 -194.175781 6.507812 -165.492188 11.589844 -136.292969 C 13.136719 -127.40625 17.460938 -120.09375 23.855469 -114.667969 C -6.636719 -103.257812 -12.980469 -72.070312 -9.078125 -49.644531 C -4.105469 -21.082031 24.964844 -4.34375 63.683594 -11.085938 C 103.246094 -17.972656 137.8125 -47.3125 143.085938 -89.648438 C 143.425781 -91.449219 143.34375 -93.179688 143.085938 -94.660156 C 141.796875 -102.066406 135.171875 -105.054688 128.824219 -103.949219 C 122.902344 -102.917969 117.390625 -98.253906 116.636719 -90.058594 Z M 116.636719 -90.058594 "/></g></g></g><g fill="#006b37" fill-opacity="0.502"><g transform="translate(70.122046, 252.430299)"><g><path d="M 116.636719 -90.058594 C 111.765625 -60.433594 85.066406 -42.273438 59.675781 -37.851562 C 40.210938 -34.464844 27.828125 -42.992188 25.324219 -57.378906 C 22.046875 -76.207031 31.632812 -88.773438 52.363281 -92.382812 C 60.296875 -89.40625 66.761719 -88.566406 72.050781 -89.488281 C 84.746094 -91.699219 89.921875 -103.28125 88.191406 -113.226562 C 86.683594 -121.898438 79.917969 -129.441406 68 -127.800781 C 55.304688 -125.59375 47.234375 -133.125 45.503906 -143.070312 C 43.109375 -156.820312 49.132812 -168.550781 63.097656 -170.980469 C 69.65625 -172.121094 76.8125 -168.574219 79.179688 -163.753906 C 83.980469 -153.691406 90.753906 -149.855469 98.15625 -151.144531 C 105.5625 -152.433594 111.871094 -158.761719 110.886719 -168.183594 C 108.253906 -190.832031 85.242188 -204.046875 58.796875 -199.441406 C 28.542969 -194.175781 6.507812 -165.492188 11.589844 -136.292969 C 13.136719 -127.40625 17.460938 -120.09375 23.855469 -114.667969 C -6.636719 -103.257812 -12.980469 -72.070312 -9.078125 -49.644531 C -4.105469 -21.082031 24.964844 -4.34375 63.683594 -11.085938 C 103.246094 -17.972656 137.8125 -47.3125 143.085938 -89.648438 C 143.425781 -91.449219 143.34375 -93.179688 143.085938 -94.660156 C 141.796875 -102.066406 135.171875 -105.054688 128.824219 -103.949219 C 122.902344 -102.917969 117.390625 -98.253906 116.636719 -90.058594 Z M 116.636719 -90.058594 "/></g></g></g><g fill="#ffe472" fill-opacity="1"><g transform="translate(60.087105, 241.236102)"><g><path d="M 116.636719 -90.058594 C 111.765625 -60.433594 85.066406 -42.273438 59.675781 -37.851562 C 40.210938 -34.464844 27.828125 -42.992188 25.324219 -57.378906 C 22.046875 -76.207031 31.632812 -88.773438 52.363281 -92.382812 C 60.296875 -89.40625 66.761719 -88.566406 72.050781 -89.488281 C 84.746094 -91.699219 89.921875 -103.28125 88.191406 -113.226562 C 86.683594 -121.898438 79.917969 -129.441406 68 -127.800781 C 55.304688 -125.59375 47.234375 -133.125 45.503906 -143.070312 C 43.109375 -156.820312 49.132812 -168.550781 63.097656 -170.980469 C 69.65625 -172.121094 76.8125 -168.574219 79.179688 -163.753906 C 83.980469 -153.691406 90.753906 -149.855469 98.15625 -151.144531 C 105.5625 -152.433594 111.871094 -158.761719 110.886719 -168.183594 C 108.253906 -190.832031 85.242188 -204.046875 58.796875 -199.441406 C 28.542969 -194.175781 6.507812 -165.492188 11.589844 -136.292969 C 13.136719 -127.40625 17.460938 -120.09375 23.855469 -114.667969 C -6.636719 -103.257812 -12.980469 -72.070312 -9.078125 -49.644531 C -4.105469 -21.082031 24.964844 -4.34375 63.683594 -11.085938 C 103.246094 -17.972656 137.8125 -47.3125 143.085938 -89.648438 C 143.425781 -91.449219 143.34375 -93.179688 143.085938 -94.660156 C 141.796875 -102.066406 135.171875 -105.054688 128.824219 -103.949219 C 122.902344 -102.917969 117.390625 -98.253906 116.636719 -90.058594 Z M 116.636719 -90.058594 "/></g></g></g></svg>