<svg xmlns="http://www.w3.org/2000/svg" xmlns:xlink="http://www.w3.org/1999/xlink" style="isolation:isolate" width="150" height="50"   viewBox="150 100 225 100"><defs><g/></defs><g fill="#171420" fill-opacity="0.302"><g transform="translate(163.049901, 179.235018)"><g><path d="M 22.851562 -67.070312 C 20.875 -66.726562 18.410156 -65.859375 16.867188 -64.28125 C 16.320312 -66.585938 13.722656 -67.734375 11.183594 -67.289062 C 8.644531 -66.847656 6.277344 -64.984375 5.621094 -61.234375 L -3.324219 -6.980469 C -3.457031 -6.085938 -3.535156 -5.273438 -3.410156 -4.566406 C -2.871094 -1.460938 0.0703125 -0.0117188 2.890625 -0.503906 C 5.21875 -0.910156 7.445312 -2.75 7.996094 -6.261719 L 10.304688 -20.984375 C 13.175781 -19.085938 17.035156 -18.230469 20.984375 -18.917969 C 27.898438 -20.121094 34.640625 -25.65625 36.253906 -35.167969 L 39.101562 -51.796875 C 39.429688 -53.671875 39.460938 -55.570312 39.191406 -57.121094 C 37.78125 -65.234375 30.613281 -68.417969 22.851562 -67.070312 Z M 27.453125 -49.40625 L 25.347656 -36.03125 C 24.761719 -32.292969 22.398438 -29.992188 19.648438 -29.515625 C 16.542969 -28.972656 13.597656 -30.859375 13.046875 -34.035156 C 12.949219 -34.597656 12.945312 -35.035156 13.058594 -35.636719 L 15.433594 -50.804688 C 16.097656 -54.917969 18.757812 -56.761719 21.578125 -57.253906 C 24.402344 -57.742188 26.835938 -56.277344 27.425781 -52.890625 C 27.585938 -51.976562 27.640625 -50.820312 27.453125 -49.40625 Z M 27.453125 -49.40625 "/></g></g></g><g fill="#171420" fill-opacity="0.302"><g transform="translate(203.892537, 172.125687)"><g><path d="M 36.863281 -27.496094 C 35.160156 -18.476562 31.90625 -14.203125 28.664062 -13.640625 C 27.394531 -13.417969 26.421875 -13.976562 26.25 -14.964844 C 26.203125 -15.246094 26.199219 -15.679688 26.277344 -16.058594 L 30.574219 -41.082031 C 30.730469 -41.835938 30.691406 -42.484375 30.582031 -43.121094 C 30.089844 -45.941406 27.289062 -47.417969 24.75 -46.972656 C 22.703125 -46.617188 20.796875 -45.050781 20.253906 -41.902344 L 16.261719 -18.894531 C 14.964844 -14.671875 12.507812 -10.828125 9.683594 -10.335938 C 8.628906 -10.152344 7.941406 -10.757812 7.753906 -11.816406 C 7.65625 -12.382812 7.640625 -13.324219 7.726562 -14.066406 L 11.585938 -37.414062 C 11.734375 -38.238281 11.75 -38.96875 11.628906 -39.675781 C 11.125 -42.566406 8.242188 -44.101562 5.632812 -43.648438 C 3.65625 -43.304688 1.75 -41.734375 1.25 -38.742188 L -2.816406 -13.246094 C -3.015625 -11.902344 -3.007812 -10.597656 -2.800781 -9.398438 C -1.804688 -3.683594 3.527344 -0.613281 9.453125 -1.644531 C 13.6875 -2.382812 16.503906 -4.980469 18.625 -8.257812 C 21.199219 -5.578125 25.328125 -4.410156 29.558594 -5.144531 C 36.261719 -6.3125 43.226562 -11.8125 45.679688 -27.359375 C 45.75 -27.804688 45.746094 -28.242188 45.671875 -28.664062 C 45.277344 -30.921875 42.929688 -31.894531 40.742188 -31.515625 C 38.90625 -31.195312 37.175781 -29.875 36.863281 -27.496094 Z M 36.863281 -27.496094 "/></g></g></g><g fill="#171420" fill-opacity="0.302"><g transform="translate(241.913576, 165.507502)"><g><path d="M 34.402344 -29.101562 C 33.632812 -24.753906 30.902344 -21.660156 27.160156 -21.007812 L 26.808594 -20.949219 L 28.484375 -30.109375 C 28.859375 -32.136719 28.878906 -34.101562 28.585938 -35.792969 C 27.382812 -42.707031 21.363281 -46.386719 15.15625 -45.304688 C 13.957031 -45.09375 12.921875 -44.769531 11.855469 -44.222656 L 14.144531 -58.210938 C 14.265625 -59.179688 14.34375 -59.992188 14.207031 -60.765625 C 13.691406 -63.730469 11 -65.003906 8.53125 -64.574219 C 6.34375 -64.195312 4.460938 -62.484375 3.976562 -59.421875 C 1.476562 -43.722656 -0.765625 -31.121094 -2.996094 -17.214844 C -3.324219 -15.339844 -3.320312 -13.230469 -3.039062 -11.609375 C -1.699219 -3.917969 5.363281 -0.933594 12.417969 -2.160156 C 17.566406 -3.058594 22.9375 -6.027344 24.988281 -12.199219 C 25.859375 -12.207031 26.789062 -12.296875 27.707031 -12.453125 C 35.183594 -13.757812 41.957031 -19.515625 43.097656 -28 C 43.167969 -28.445312 43.175781 -28.8125 43.113281 -29.164062 C 42.707031 -31.492188 39.980469 -32.542969 37.652344 -32.140625 C 36.101562 -31.871094 34.671875 -30.894531 34.402344 -29.101562 Z M 15.242188 -15.15625 L 15.199219 -14.566406 C 14.757812 -12.089844 12.789062 -10.875 10.957031 -10.554688 C 8.910156 -10.199219 7.371094 -11.097656 7.027344 -13.070312 C 6.917969 -13.707031 6.867188 -14.425781 7.011719 -15.25 C 7.996094 -20.871094 8.773438 -25.585938 9.675781 -31.265625 C 10.632812 -34.125 12.582031 -36.28125 14.628906 -36.636719 C 16.464844 -36.957031 17.941406 -35.976562 18.25 -34.214844 C 18.335938 -33.71875 18.363281 -33.144531 18.25 -32.542969 L 17.503906 -28.050781 C 17.054688 -28.117188 17.574219 -28.0625 17.082031 -27.976562 C 13.625 -27.375 11.363281 -24.074219 11.992188 -20.476562 C 12.347656 -18.429688 13.464844 -16.589844 15.242188 -15.15625 Z M 15.242188 -15.15625 "/></g></g></g><g fill="#171420" fill-opacity="0.502"><g transform="translate(160.374293, 181.031221)"><g><path d="M 22.851562 -67.070312 C 20.875 -66.726562 18.410156 -65.859375 16.867188 -64.28125 C 16.320312 -66.585938 13.722656 -67.734375 11.183594 -67.289062 C 8.644531 -66.847656 6.277344 -64.984375 5.621094 -61.234375 L -3.324219 -6.980469 C -3.457031 -6.085938 -3.535156 -5.273438 -3.410156 -4.566406 C -2.871094 -1.460938 0.0703125 -0.0117188 2.890625 -0.503906 C 5.21875 -0.910156 7.445312 -2.75 7.996094 -6.261719 L 10.304688 -20.984375 C 13.175781 -19.085938 17.035156 -18.230469 20.984375 -18.917969 C 27.898438 -20.121094 34.640625 -25.65625 36.253906 -35.167969 L 39.101562 -51.796875 C 39.429688 -53.671875 39.460938 -55.570312 39.191406 -57.121094 C 37.78125 -65.234375 30.613281 -68.417969 22.851562 -67.070312 Z M 27.453125 -49.40625 L 25.347656 -36.03125 C 24.761719 -32.292969 22.398438 -29.992188 19.648438 -29.515625 C 16.542969 -28.972656 13.597656 -30.859375 13.046875 -34.035156 C 12.949219 -34.597656 12.945312 -35.035156 13.058594 -35.636719 L 15.433594 -50.804688 C 16.097656 -54.917969 18.757812 -56.761719 21.578125 -57.253906 C 24.402344 -57.742188 26.835938 -56.277344 27.425781 -52.890625 C 27.585938 -51.976562 27.640625 -50.820312 27.453125 -49.40625 Z M 27.453125 -49.40625 "/></g></g></g><g fill="#171420" fill-opacity="0.502"><g transform="translate(201.216929, 173.92189)"><g><path d="M 36.863281 -27.496094 C 35.160156 -18.476562 31.90625 -14.203125 28.664062 -13.640625 C 27.394531 -13.417969 26.421875 -13.976562 26.25 -14.964844 C 26.203125 -15.246094 26.199219 -15.679688 26.277344 -16.058594 L 30.574219 -41.082031 C 30.730469 -41.835938 30.691406 -42.484375 30.582031 -43.121094 C 30.089844 -45.941406 27.289062 -47.417969 24.75 -46.972656 C 22.703125 -46.617188 20.796875 -45.050781 20.253906 -41.902344 L 16.261719 -18.894531 C 14.964844 -14.671875 12.507812 -10.828125 9.683594 -10.335938 C 8.628906 -10.152344 7.941406 -10.757812 7.753906 -11.816406 C 7.65625 -12.382812 7.640625 -13.324219 7.726562 -14.066406 L 11.585938 -37.414062 C 11.734375 -38.238281 11.75 -38.96875 11.628906 -39.675781 C 11.125 -42.566406 8.242188 -44.101562 5.632812 -43.648438 C 3.65625 -43.304688 1.75 -41.734375 1.25 -38.742188 L -2.816406 -13.246094 C -3.015625 -11.902344 -3.007812 -10.597656 -2.800781 -9.398438 C -1.804688 -3.683594 3.527344 -0.613281 9.453125 -1.644531 C 13.6875 -2.382812 16.503906 -4.980469 18.625 -8.257812 C 21.199219 -5.578125 25.328125 -4.410156 29.558594 -5.144531 C 36.261719 -6.3125 43.226562 -11.8125 45.679688 -27.359375 C 45.75 -27.804688 45.746094 -28.242188 45.671875 -28.664062 C 45.277344 -30.921875 42.929688 -31.894531 40.742188 -31.515625 C 38.90625 -31.195312 37.175781 -29.875 36.863281 -27.496094 Z M 36.863281 -27.496094 "/></g></g></g><g fill="#171420" fill-opacity="0.502"><g transform="translate(239.237968, 167.303705)"><g><path d="M 34.402344 -29.101562 C 33.632812 -24.753906 30.902344 -21.660156 27.160156 -21.007812 L 26.808594 -20.949219 L 28.484375 -30.109375 C 28.859375 -32.136719 28.878906 -34.101562 28.585938 -35.792969 C 27.382812 -42.707031 21.363281 -46.386719 15.15625 -45.304688 C 13.957031 -45.09375 12.921875 -44.769531 11.855469 -44.222656 L 14.144531 -58.210938 C 14.265625 -59.179688 14.34375 -59.992188 14.207031 -60.765625 C 13.691406 -63.730469 11 -65.003906 8.53125 -64.574219 C 6.34375 -64.195312 4.460938 -62.484375 3.976562 -59.421875 C 1.476562 -43.722656 -0.765625 -31.121094 -2.996094 -17.214844 C -3.324219 -15.339844 -3.320312 -13.230469 -3.039062 -11.609375 C -1.699219 -3.917969 5.363281 -0.933594 12.417969 -2.160156 C 17.566406 -3.058594 22.9375 -6.027344 24.988281 -12.199219 C 25.859375 -12.207031 26.789062 -12.296875 27.707031 -12.453125 C 35.183594 -13.757812 41.957031 -19.515625 43.097656 -28 C 43.167969 -28.445312 43.175781 -28.8125 43.113281 -29.164062 C 42.707031 -31.492188 39.980469 -32.542969 37.652344 -32.140625 C 36.101562 -31.871094 34.671875 -30.894531 34.402344 -29.101562 Z M 15.242188 -15.15625 L 15.199219 -14.566406 C 14.757812 -12.089844 12.789062 -10.875 10.957031 -10.554688 C 8.910156 -10.199219 7.371094 -11.097656 7.027344 -13.070312 C 6.917969 -13.707031 6.867188 -14.425781 7.011719 -15.25 C 7.996094 -20.871094 8.773438 -25.585938 9.675781 -31.265625 C 10.632812 -34.125 12.582031 -36.28125 14.628906 -36.636719 C 16.464844 -36.957031 17.941406 -35.976562 18.25 -34.214844 C 18.335938 -33.71875 18.363281 -33.144531 18.25 -32.542969 L 17.503906 -28.050781 C 17.054688 -28.117188 17.574219 -28.0625 17.082031 -27.976562 C 13.625 -27.375 11.363281 -24.074219 11.992188 -20.476562 C 12.347656 -18.429688 13.464844 -16.589844 15.242188 -15.15625 Z M 15.242188 -15.15625 "/></g></g></g><g fill="#ffffff" fill-opacity="1"><g transform="translate(157.698685, 182.82741)"><g><path d="M 22.851562 -67.070312 C 20.875 -66.726562 18.410156 -65.859375 16.867188 -64.28125 C 16.320312 -66.585938 13.722656 -67.734375 11.183594 -67.289062 C 8.644531 -66.847656 6.277344 -64.984375 5.621094 -61.234375 L -3.324219 -6.980469 C -3.457031 -6.085938 -3.535156 -5.273438 -3.410156 -4.566406 C -2.871094 -1.460938 0.0703125 -0.0117188 2.890625 -0.503906 C 5.21875 -0.910156 7.445312 -2.75 7.996094 -6.261719 L 10.304688 -20.984375 C 13.175781 -19.085938 17.035156 -18.230469 20.984375 -18.917969 C 27.898438 -20.121094 34.640625 -25.65625 36.253906 -35.167969 L 39.101562 -51.796875 C 39.429688 -53.671875 39.460938 -55.570312 39.191406 -57.121094 C 37.78125 -65.234375 30.613281 -68.417969 22.851562 -67.070312 Z M 27.453125 -49.40625 L 25.347656 -36.03125 C 24.761719 -32.292969 22.398438 -29.992188 19.648438 -29.515625 C 16.542969 -28.972656 13.597656 -30.859375 13.046875 -34.035156 C 12.949219 -34.597656 12.945312 -35.035156 13.058594 -35.636719 L 15.433594 -50.804688 C 16.097656 -54.917969 18.757812 -56.761719 21.578125 -57.253906 C 24.402344 -57.742188 26.835938 -56.277344 27.425781 -52.890625 C 27.585938 -51.976562 27.640625 -50.820312 27.453125 -49.40625 Z M 27.453125 -49.40625 "/></g></g></g><g fill="#ffffff" fill-opacity="1"><g transform="translate(198.541321, 175.718079)"><g><path d="M 36.863281 -27.496094 C 35.160156 -18.476562 31.90625 -14.203125 28.664062 -13.640625 C 27.394531 -13.417969 26.421875 -13.976562 26.25 -14.964844 C 26.203125 -15.246094 26.199219 -15.679688 26.277344 -16.058594 L 30.574219 -41.082031 C 30.730469 -41.835938 30.691406 -42.484375 30.582031 -43.121094 C 30.089844 -45.941406 27.289062 -47.417969 24.75 -46.972656 C 22.703125 -46.617188 20.796875 -45.050781 20.253906 -41.902344 L 16.261719 -18.894531 C 14.964844 -14.671875 12.507812 -10.828125 9.683594 -10.335938 C 8.628906 -10.152344 7.941406 -10.757812 7.753906 -11.816406 C 7.65625 -12.382812 7.640625 -13.324219 7.726562 -14.066406 L 11.585938 -37.414062 C 11.734375 -38.238281 11.75 -38.96875 11.628906 -39.675781 C 11.125 -42.566406 8.242188 -44.101562 5.632812 -43.648438 C 3.65625 -43.304688 1.75 -41.734375 1.25 -38.742188 L -2.816406 -13.246094 C -3.015625 -11.902344 -3.007812 -10.597656 -2.800781 -9.398438 C -1.804688 -3.683594 3.527344 -0.613281 9.453125 -1.644531 C 13.6875 -2.382812 16.503906 -4.980469 18.625 -8.257812 C 21.199219 -5.578125 25.328125 -4.410156 29.558594 -5.144531 C 36.261719 -6.3125 43.226562 -11.8125 45.679688 -27.359375 C 45.75 -27.804688 45.746094 -28.242188 45.671875 -28.664062 C 45.277344 -30.921875 42.929688 -31.894531 40.742188 -31.515625 C 38.90625 -31.195312 37.175781 -29.875 36.863281 -27.496094 Z M 36.863281 -27.496094 "/></g></g></g><g fill="#ffffff" fill-opacity="1"><g transform="translate(236.56236, 169.099893)"><g><path d="M 34.402344 -29.101562 C 33.632812 -24.753906 30.902344 -21.660156 27.160156 -21.007812 L 26.808594 -20.949219 L 28.484375 -30.109375 C 28.859375 -32.136719 28.878906 -34.101562 28.585938 -35.792969 C 27.382812 -42.707031 21.363281 -46.386719 15.15625 -45.304688 C 13.957031 -45.09375 12.921875 -44.769531 11.855469 -44.222656 L 14.144531 -58.210938 C 14.265625 -59.179688 14.34375 -59.992188 14.207031 -60.765625 C 13.691406 -63.730469 11 -65.003906 8.53125 -64.574219 C 6.34375 -64.195312 4.460938 -62.484375 3.976562 -59.421875 C 1.476562 -43.722656 -0.765625 -31.121094 -2.996094 -17.214844 C -3.324219 -15.339844 -3.320312 -13.230469 -3.039062 -11.609375 C -1.699219 -3.917969 5.363281 -0.933594 12.417969 -2.160156 C 17.566406 -3.058594 22.9375 -6.027344 24.988281 -12.199219 C 25.859375 -12.207031 26.789062 -12.296875 27.707031 -12.453125 C 35.183594 -13.757812 41.957031 -19.515625 43.097656 -28 C 43.167969 -28.445312 43.175781 -28.8125 43.113281 -29.164062 C 42.707031 -31.492188 39.980469 -32.542969 37.652344 -32.140625 C 36.101562 -31.871094 34.671875 -30.894531 34.402344 -29.101562 Z M 15.242188 -15.15625 L 15.199219 -14.566406 C 14.757812 -12.089844 12.789062 -10.875 10.957031 -10.554688 C 8.910156 -10.199219 7.371094 -11.097656 7.027344 -13.070312 C 6.917969 -13.707031 6.867188 -14.425781 7.011719 -15.25 C 7.996094 -20.871094 8.773438 -25.585938 9.675781 -31.265625 C 10.632812 -34.125 12.582031 -36.28125 14.628906 -36.636719 C 16.464844 -36.957031 17.941406 -35.976562 18.25 -34.214844 C 18.335938 -33.71875 18.363281 -33.144531 18.25 -32.542969 L 17.503906 -28.050781 C 17.054688 -28.117188 17.574219 -28.0625 17.082031 -27.976562 C 13.625 -27.375 11.363281 -24.074219 11.992188 -20.476562 C 12.347656 -18.429688 13.464844 -16.589844 15.242188 -15.15625 Z M 15.242188 -15.15625 "/></g></g></g><g fill="#171420" fill-opacity="0.302"><g transform="translate(247.600135, 194.15299)"><g><path d="M 50.53125 -62.90625 L 22.425781 -58.660156 C 18.792969 -58.113281 17.59375 -55.714844 17.898438 -53.675781 C 18.1875 -51.765625 19.871094 -50.128906 22.164062 -50.472656 L 25.988281 -51.050781 L 23.648438 -40.203125 L 20.71875 -39.761719 C 17.277344 -39.242188 15.9375 -36.886719 16.246094 -34.847656 C 16.542969 -32.875 18.363281 -31.191406 21.421875 -31.65625 L 22.058594 -31.75 L 19.578125 -19.253906 C 18.316406 -12.933594 15.941406 -11.402344 12.628906 -10.902344 C 10.332031 -10.554688 8.507812 -11.84375 7.703125 -13.289062 C 7.765625 -13.753906 7.761719 -14.207031 7.695312 -14.65625 C 7.25 -17.585938 4.367188 -18.976562 1.882812 -18.601562 C -0.664062 -18.214844 -2.945312 -16.046875 -2.328125 -11.96875 C -1.414062 -5.914062 5.542969 -0.835938 13.894531 -2.097656 C 20.457031 -3.089844 26.441406 -7.058594 28.53125 -17.800781 C 29.390625 -22.496094 30.625 -28.546875 31.542969 -33.25 L 35.367188 -33.828125 C 39.253906 -34.414062 40.449219 -36.875 40.128906 -38.976562 C 39.851562 -40.828125 38.371094 -42.429688 36.460938 -42.140625 L 33.144531 -41.636719 L 35.164062 -52.4375 L 50.140625 -54.699219 C 53.691406 -55.367188 54.910156 -57.636719 54.601562 -59.675781 C 54.316406 -61.585938 52.699219 -63.234375 50.53125 -62.90625 Z M 50.53125 -62.90625 "/></g></g></g><g fill="#171420" fill-opacity="0.302"><g transform="translate(290.036927, 187.743085)"><g><path d="M 10.605469 -45.859375 C 13.472656 -46.292969 15.476562 -49.007812 15.035156 -51.9375 C 14.601562 -54.808594 11.894531 -56.746094 9.027344 -56.3125 C 6.160156 -55.878906 4.148438 -53.226562 4.582031 -50.359375 C 5.023438 -47.429688 7.738281 -45.425781 10.605469 -45.859375 Z M 6.914062 -12.058594 L 10.898438 -33.128906 C 11.03125 -33.996094 11.214844 -34.9375 11.117188 -35.574219 C 10.695312 -38.378906 8.371094 -39.527344 6.203125 -39.199219 C 4.226562 -38.898438 2.335938 -37.179688 1.769531 -34.03125 C 0.632812 -27.734375 -0.898438 -19.746094 -2.039062 -13.511719 C -2.230469 -12.179688 -2.480469 -10.378906 -2.316406 -9.296875 C -1.410156 -3.304688 4.078125 -0.617188 9.941406 -1.5 C 16.1875 -2.445312 22.492188 -7.308594 24.960938 -21.171875 C 25.03125 -21.574219 25.035156 -21.96875 24.976562 -22.351562 C 24.679688 -24.324219 22.585938 -25.246094 20.671875 -24.957031 C 18.953125 -24.699219 17.367188 -23.546875 16.898438 -21.457031 C 15.15625 -12.71875 12.171875 -9.59375 9.625 -9.210938 C 8.160156 -8.988281 7.058594 -9.800781 6.875 -11.011719 C 6.828125 -11.328125 6.84375 -11.660156 6.914062 -12.058594 Z M 6.914062 -12.058594 "/></g></g></g><g fill="#171420" fill-opacity="0.302"><g transform="translate(307.623342, 185.086729)"><g><path d="M 32.789062 -23.726562 C 31.140625 -15.652344 28.105469 -12 25.109375 -11.550781 C 23.964844 -11.375 23.238281 -11.851562 23.074219 -12.9375 C 23.007812 -13.382812 23.058594 -13.910156 23.152344 -14.578125 L 25.988281 -29.476562 C 26.242188 -30.820312 26.324219 -32.003906 26.160156 -33.085938 C 25.390625 -38.1875 20.476562 -41.355469 15.378906 -40.585938 C 12.894531 -40.210938 11.003906 -39.335938 9.53125 -37.875 C 8.976562 -38.964844 7.285156 -39.363281 5.566406 -39.101562 C 3.78125 -38.832031 2.1875 -37.746094 1.816406 -35.863281 L -4.328125 -4.496094 C -4.433594 -3.894531 -4.421875 -3.375 -4.34375 -2.863281 C -3.988281 -0.503906 -1.957031 0.425781 0.0820312 0.117188 C 2.3125 -0.21875 4.652344 -2.007812 5.171875 -5.019531 C 6.46875 -11.535156 8.210938 -20.730469 9.453125 -27.175781 C 10.691406 -30.621094 12.691406 -32.488281 14.476562 -32.757812 C 15.625 -32.929688 16.566406 -32.289062 16.75 -31.078125 C 16.816406 -30.632812 16.777344 -30.039062 16.671875 -29.4375 L 14.003906 -15.609375 C 13.714844 -14.066406 13.609375 -12.613281 13.808594 -11.277344 C 14.695312 -5.414062 20.011719 -3.023438 25.425781 -3.839844 C 31.925781 -4.824219 38.210938 -10.269531 40.730469 -23.359375 C 40.84375 -23.898438 40.894531 -24.429688 40.828125 -24.875 C 40.519531 -26.914062 38.507812 -27.71875 36.59375 -27.429688 C 34.875 -27.167969 33.109375 -25.925781 32.789062 -23.726562 Z M 32.789062 -23.726562 "/></g></g></g><g fill="#171420" fill-opacity="0.302"><g transform="translate(341.075768, 180.033876)"><g><path d="M 37.296875 -27.535156 C 35.574219 -27.273438 33.925781 -26.113281 33.660156 -23.988281 C 31.949219 -15.90625 28.996094 -12.136719 26.128906 -11.703125 C 24.855469 -11.511719 24.019531 -12.296875 23.867188 -13.316406 C 23.808594 -13.699219 23.8125 -14.089844 23.953125 -14.894531 L 31.285156 -54.394531 C 31.421875 -55.195312 31.578125 -56.328125 31.472656 -57.03125 C 31.058594 -59.769531 28.605469 -60.898438 26.375 -60.5625 C 24.402344 -60.261719 22.773438 -58.519531 22.128906 -55.03125 L 18.8125 -37.714844 C 16.582031 -39.527344 13.59375 -40.316406 10.601562 -39.863281 C 6.457031 -39.238281 2.34375 -36.269531 1.355469 -31.164062 L -2.101562 -13.046875 C -2.363281 -11.765625 -2.363281 -10.464844 -2.1875 -9.316406 C -1.34375 -3.707031 3.761719 -0.566406 9.242188 -1.394531 C 12.234375 -1.847656 15.394531 -3.367188 17.570312 -6.238281 C 19.871094 -4.371094 23.132812 -3.496094 26.320312 -3.976562 C 32.628906 -4.929688 39.210938 -10.550781 41.59375 -23.6875 C 41.652344 -24.152344 41.714844 -24.617188 41.65625 -25 C 41.355469 -26.972656 39.273438 -27.832031 37.296875 -27.535156 Z M 9.160156 -11.421875 C 7.902344 -11.558594 7.4375 -12.464844 7.285156 -13.484375 C 7.160156 -14.3125 7.234375 -15.105469 7.339844 -15.710938 L 9.363281 -26.902344 C 10.070312 -30.851562 11.695312 -31.75 12.714844 -31.902344 C 13.925781 -32.085938 15.445312 -31.078125 15.773438 -28.910156 C 15.917969 -27.957031 15.910156 -26.714844 15.578125 -25.035156 L 14.070312 -17.3125 C 12.871094 -12.308594 10.410156 -11.347656 9.160156 -11.421875 Z M 9.160156 -11.421875 "/></g></g></g><g fill="#171420" fill-opacity="0.502"><g transform="translate(245.15643, 195.715167)"><g><path d="M 50.53125 -62.90625 L 22.425781 -58.660156 C 18.792969 -58.113281 17.59375 -55.714844 17.898438 -53.675781 C 18.1875 -51.765625 19.871094 -50.128906 22.164062 -50.472656 L 25.988281 -51.050781 L 23.648438 -40.203125 L 20.71875 -39.761719 C 17.277344 -39.242188 15.9375 -36.886719 16.246094 -34.847656 C 16.542969 -32.875 18.363281 -31.191406 21.421875 -31.65625 L 22.058594 -31.75 L 19.578125 -19.253906 C 18.316406 -12.933594 15.941406 -11.402344 12.628906 -10.902344 C 10.332031 -10.554688 8.507812 -11.84375 7.703125 -13.289062 C 7.765625 -13.753906 7.761719 -14.207031 7.695312 -14.65625 C 7.25 -17.585938 4.367188 -18.976562 1.882812 -18.601562 C -0.664062 -18.214844 -2.945312 -16.046875 -2.328125 -11.96875 C -1.414062 -5.914062 5.542969 -0.835938 13.894531 -2.097656 C 20.457031 -3.089844 26.441406 -7.058594 28.53125 -17.800781 C 29.390625 -22.496094 30.625 -28.546875 31.542969 -33.25 L 35.367188 -33.828125 C 39.253906 -34.414062 40.449219 -36.875 40.128906 -38.976562 C 39.851562 -40.828125 38.371094 -42.429688 36.460938 -42.140625 L 33.144531 -41.636719 L 35.164062 -52.4375 L 50.140625 -54.699219 C 53.691406 -55.367188 54.910156 -57.636719 54.601562 -59.675781 C 54.316406 -61.585938 52.699219 -63.234375 50.53125 -62.90625 Z M 50.53125 -62.90625 "/></g></g></g><g fill="#171420" fill-opacity="0.502"><g transform="translate(287.593222, 189.305263)"><g><path d="M 10.605469 -45.859375 C 13.472656 -46.292969 15.476562 -49.007812 15.035156 -51.9375 C 14.601562 -54.808594 11.894531 -56.746094 9.027344 -56.3125 C 6.160156 -55.878906 4.148438 -53.226562 4.582031 -50.359375 C 5.023438 -47.429688 7.738281 -45.425781 10.605469 -45.859375 Z M 6.914062 -12.058594 L 10.898438 -33.128906 C 11.03125 -33.996094 11.214844 -34.9375 11.117188 -35.574219 C 10.695312 -38.378906 8.371094 -39.527344 6.203125 -39.199219 C 4.226562 -38.898438 2.335938 -37.179688 1.769531 -34.03125 C 0.632812 -27.734375 -0.898438 -19.746094 -2.039062 -13.511719 C -2.230469 -12.179688 -2.480469 -10.378906 -2.316406 -9.296875 C -1.410156 -3.304688 4.078125 -0.617188 9.941406 -1.5 C 16.1875 -2.445312 22.492188 -7.308594 24.960938 -21.171875 C 25.03125 -21.574219 25.035156 -21.96875 24.976562 -22.351562 C 24.679688 -24.324219 22.585938 -25.246094 20.671875 -24.957031 C 18.953125 -24.699219 17.367188 -23.546875 16.898438 -21.457031 C 15.15625 -12.71875 12.171875 -9.59375 9.625 -9.210938 C 8.160156 -8.988281 7.058594 -9.800781 6.875 -11.011719 C 6.828125 -11.328125 6.84375 -11.660156 6.914062 -12.058594 Z M 6.914062 -12.058594 "/></g></g></g><g fill="#171420" fill-opacity="0.502"><g transform="translate(305.179637, 186.648907)"><g><path d="M 32.789062 -23.726562 C 31.140625 -15.652344 28.105469 -12 25.109375 -11.550781 C 23.964844 -11.375 23.238281 -11.851562 23.074219 -12.9375 C 23.007812 -13.382812 23.058594 -13.910156 23.152344 -14.578125 L 25.988281 -29.476562 C 26.242188 -30.820312 26.324219 -32.003906 26.160156 -33.085938 C 25.390625 -38.1875 20.476562 -41.355469 15.378906 -40.585938 C 12.894531 -40.210938 11.003906 -39.335938 9.53125 -37.875 C 8.976562 -38.964844 7.285156 -39.363281 5.566406 -39.101562 C 3.78125 -38.832031 2.1875 -37.746094 1.816406 -35.863281 L -4.328125 -4.496094 C -4.433594 -3.894531 -4.421875 -3.375 -4.34375 -2.863281 C -3.988281 -0.503906 -1.957031 0.425781 0.0820312 0.117188 C 2.3125 -0.21875 4.652344 -2.007812 5.171875 -5.019531 C 6.46875 -11.535156 8.210938 -20.730469 9.453125 -27.175781 C 10.691406 -30.621094 12.691406 -32.488281 14.476562 -32.757812 C 15.625 -32.929688 16.566406 -32.289062 16.75 -31.078125 C 16.816406 -30.632812 16.777344 -30.039062 16.671875 -29.4375 L 14.003906 -15.609375 C 13.714844 -14.066406 13.609375 -12.613281 13.808594 -11.277344 C 14.695312 -5.414062 20.011719 -3.023438 25.425781 -3.839844 C 31.925781 -4.824219 38.210938 -10.269531 40.730469 -23.359375 C 40.84375 -23.898438 40.894531 -24.429688 40.828125 -24.875 C 40.519531 -26.914062 38.507812 -27.71875 36.59375 -27.429688 C 34.875 -27.167969 33.109375 -25.925781 32.789062 -23.726562 Z M 32.789062 -23.726562 "/></g></g></g><g fill="#171420" fill-opacity="0.502"><g transform="translate(338.632063, 181.596054)"><g><path d="M 37.296875 -27.535156 C 35.574219 -27.273438 33.925781 -26.113281 33.660156 -23.988281 C 31.949219 -15.90625 28.996094 -12.136719 26.128906 -11.703125 C 24.855469 -11.511719 24.019531 -12.296875 23.867188 -13.316406 C 23.808594 -13.699219 23.8125 -14.089844 23.953125 -14.894531 L 31.285156 -54.394531 C 31.421875 -55.195312 31.578125 -56.328125 31.472656 -57.03125 C 31.058594 -59.769531 28.605469 -60.898438 26.375 -60.5625 C 24.402344 -60.261719 22.773438 -58.519531 22.128906 -55.03125 L 18.8125 -37.714844 C 16.582031 -39.527344 13.59375 -40.316406 10.601562 -39.863281 C 6.457031 -39.238281 2.34375 -36.269531 1.355469 -31.164062 L -2.101562 -13.046875 C -2.363281 -11.765625 -2.363281 -10.464844 -2.1875 -9.316406 C -1.34375 -3.707031 3.761719 -0.566406 9.242188 -1.394531 C 12.234375 -1.847656 15.394531 -3.367188 17.570312 -6.238281 C 19.871094 -4.371094 23.132812 -3.496094 26.320312 -3.976562 C 32.628906 -4.929688 39.210938 -10.550781 41.59375 -23.6875 C 41.652344 -24.152344 41.714844 -24.617188 41.65625 -25 C 41.355469 -26.972656 39.273438 -27.832031 37.296875 -27.535156 Z M 9.160156 -11.421875 C 7.902344 -11.558594 7.4375 -12.464844 7.285156 -13.484375 C 7.160156 -14.3125 7.234375 -15.105469 7.339844 -15.710938 L 9.363281 -26.902344 C 10.070312 -30.851562 11.695312 -31.75 12.714844 -31.902344 C 13.925781 -32.085938 15.445312 -31.078125 15.773438 -28.910156 C 15.917969 -27.957031 15.910156 -26.714844 15.578125 -25.035156 L 14.070312 -17.3125 C 12.871094 -12.308594 10.410156 -11.347656 9.160156 -11.421875 Z M 9.160156 -11.421875 "/></g></g></g><g fill="#ffffff" fill-opacity="1"><g transform="translate(242.712711, 197.277345)"><g><path d="M 50.53125 -62.90625 L 22.425781 -58.660156 C 18.792969 -58.113281 17.59375 -55.714844 17.898438 -53.675781 C 18.1875 -51.765625 19.871094 -50.128906 22.164062 -50.472656 L 25.988281 -51.050781 L 23.648438 -40.203125 L 20.71875 -39.761719 C 17.277344 -39.242188 15.9375 -36.886719 16.246094 -34.847656 C 16.542969 -32.875 18.363281 -31.191406 21.421875 -31.65625 L 22.058594 -31.75 L 19.578125 -19.253906 C 18.316406 -12.933594 15.941406 -11.402344 12.628906 -10.902344 C 10.332031 -10.554688 8.507812 -11.84375 7.703125 -13.289062 C 7.765625 -13.753906 7.761719 -14.207031 7.695312 -14.65625 C 7.25 -17.585938 4.367188 -18.976562 1.882812 -18.601562 C -0.664062 -18.214844 -2.945312 -16.046875 -2.328125 -11.96875 C -1.414062 -5.914062 5.542969 -0.835938 13.894531 -2.097656 C 20.457031 -3.089844 26.441406 -7.058594 28.53125 -17.800781 C 29.390625 -22.496094 30.625 -28.546875 31.542969 -33.25 L 35.367188 -33.828125 C 39.253906 -34.414062 40.449219 -36.875 40.128906 -38.976562 C 39.851562 -40.828125 38.371094 -42.429688 36.460938 -42.140625 L 33.144531 -41.636719 L 35.164062 -52.4375 L 50.140625 -54.699219 C 53.691406 -55.367188 54.910156 -57.636719 54.601562 -59.675781 C 54.316406 -61.585938 52.699219 -63.234375 50.53125 -62.90625 Z M 50.53125 -62.90625 "/></g></g></g><g fill="#ffffff" fill-opacity="1"><g transform="translate(285.149503, 190.867441)"><g><path d="M 10.605469 -45.859375 C 13.472656 -46.292969 15.476562 -49.007812 15.035156 -51.9375 C 14.601562 -54.808594 11.894531 -56.746094 9.027344 -56.3125 C 6.160156 -55.878906 4.148438 -53.226562 4.582031 -50.359375 C 5.023438 -47.429688 7.738281 -45.425781 10.605469 -45.859375 Z M 6.914062 -12.058594 L 10.898438 -33.128906 C 11.03125 -33.996094 11.214844 -34.9375 11.117188 -35.574219 C 10.695312 -38.378906 8.371094 -39.527344 6.203125 -39.199219 C 4.226562 -38.898438 2.335938 -37.179688 1.769531 -34.03125 C 0.632812 -27.734375 -0.898438 -19.746094 -2.039062 -13.511719 C -2.230469 -12.179688 -2.480469 -10.378906 -2.316406 -9.296875 C -1.410156 -3.304688 4.078125 -0.617188 9.941406 -1.5 C 16.1875 -2.445312 22.492188 -7.308594 24.960938 -21.171875 C 25.03125 -21.574219 25.035156 -21.96875 24.976562 -22.351562 C 24.679688 -24.324219 22.585938 -25.246094 20.671875 -24.957031 C 18.953125 -24.699219 17.367188 -23.546875 16.898438 -21.457031 C 15.15625 -12.71875 12.171875 -9.59375 9.625 -9.210938 C 8.160156 -8.988281 7.058594 -9.800781 6.875 -11.011719 C 6.828125 -11.328125 6.84375 -11.660156 6.914062 -12.058594 Z M 6.914062 -12.058594 "/></g></g></g><g fill="#ffffff" fill-opacity="1"><g transform="translate(302.735918, 188.211084)"><g><path d="M 32.789062 -23.726562 C 31.140625 -15.652344 28.105469 -12 25.109375 -11.550781 C 23.964844 -11.375 23.238281 -11.851562 23.074219 -12.9375 C 23.007812 -13.382812 23.058594 -13.910156 23.152344 -14.578125 L 25.988281 -29.476562 C 26.242188 -30.820312 26.324219 -32.003906 26.160156 -33.085938 C 25.390625 -38.1875 20.476562 -41.355469 15.378906 -40.585938 C 12.894531 -40.210938 11.003906 -39.335938 9.53125 -37.875 C 8.976562 -38.964844 7.285156 -39.363281 5.566406 -39.101562 C 3.78125 -38.832031 2.1875 -37.746094 1.816406 -35.863281 L -4.328125 -4.496094 C -4.433594 -3.894531 -4.421875 -3.375 -4.34375 -2.863281 C -3.988281 -0.503906 -1.957031 0.425781 0.0820312 0.117188 C 2.3125 -0.21875 4.652344 -2.007812 5.171875 -5.019531 C 6.46875 -11.535156 8.210938 -20.730469 9.453125 -27.175781 C 10.691406 -30.621094 12.691406 -32.488281 14.476562 -32.757812 C 15.625 -32.929688 16.566406 -32.289062 16.75 -31.078125 C 16.816406 -30.632812 16.777344 -30.039062 16.671875 -29.4375 L 14.003906 -15.609375 C 13.714844 -14.066406 13.609375 -12.613281 13.808594 -11.277344 C 14.695312 -5.414062 20.011719 -3.023438 25.425781 -3.839844 C 31.925781 -4.824219 38.210938 -10.269531 40.730469 -23.359375 C 40.84375 -23.898438 40.894531 -24.429688 40.828125 -24.875 C 40.519531 -26.914062 38.507812 -27.71875 36.59375 -27.429688 C 34.875 -27.167969 33.109375 -25.925781 32.789062 -23.726562 Z M 32.789062 -23.726562 "/></g></g></g><g fill="#ffffff" fill-opacity="1"><g transform="translate(336.188344, 183.158232)"><g><path d="M 37.296875 -27.535156 C 35.574219 -27.273438 33.925781 -26.113281 33.660156 -23.988281 C 31.949219 -15.90625 28.996094 -12.136719 26.128906 -11.703125 C 24.855469 -11.511719 24.019531 -12.296875 23.867188 -13.316406 C 23.808594 -13.699219 23.8125 -14.089844 23.953125 -14.894531 L 31.285156 -54.394531 C 31.421875 -55.195312 31.578125 -56.328125 31.472656 -57.03125 C 31.058594 -59.769531 28.605469 -60.898438 26.375 -60.5625 C 24.402344 -60.261719 22.773438 -58.519531 22.128906 -55.03125 L 18.8125 -37.714844 C 16.582031 -39.527344 13.59375 -40.316406 10.601562 -39.863281 C 6.457031 -39.238281 2.34375 -36.269531 1.355469 -31.164062 L -2.101562 -13.046875 C -2.363281 -11.765625 -2.363281 -10.464844 -2.1875 -9.316406 C -1.34375 -3.707031 3.761719 -0.566406 9.242188 -1.394531 C 12.234375 -1.847656 15.394531 -3.367188 17.570312 -6.238281 C 19.871094 -4.371094 23.132812 -3.496094 26.320312 -3.976562 C 32.628906 -4.929688 39.210938 -10.550781 41.59375 -23.6875 C 41.652344 -24.152344 41.714844 -24.617188 41.65625 -25 C 41.355469 -26.972656 39.273438 -27.832031 37.296875 -27.535156 Z M 9.160156 -11.421875 C 7.902344 -11.558594 7.4375 -12.464844 7.285156 -13.484375 C 7.160156 -14.3125 7.234375 -15.105469 7.339844 -15.710938 L 9.363281 -26.902344 C 10.070312 -30.851562 11.695312 -31.75 12.714844 -31.902344 C 13.925781 -32.085938 15.445312 -31.078125 15.773438 -28.910156 C 15.917969 -27.957031 15.910156 -26.714844 15.578125 -25.035156 L 14.070312 -17.3125 C 12.871094 -12.308594 10.410156 -11.347656 9.160156 -11.421875 Z M 9.160156 -11.421875 "/></g></g></g></svg>